<svg xmlns="http://www.w3.org/2000/svg" viewBox="0 0 330.75 277.16"><defs><style>.cls-1{fill:#fff;}</style></defs><g id="Capa_2" data-name="Capa 2"><g id="Capa_1-2" data-name="Capa 1"><path class="cls-1" d="M24.88,244.53,11.26,220.76c3-1.72,5.72-3.55,8.68-4.92,2.23-1,2.17-2.49,1.27-4.08-3.58-6.27-7.35-12.43-10.93-18.7S3.37,180.64,0,174.58c4.4-2.55,8.79-5.1,13.54-7.84,2.7,4.33,5.51,8.59,8.06,13,4.69,8.12,9.17,16.37,13.91,24.47.39.66,2.28,1,3.24.68,1.76-.54.93-1.76.28-2.89q-10.33-17.88-20.58-35.79c-.32-.56-.55-1.17-.88-1.87L31,156.43c5.3,9,10.47,17.82,15.61,26.63,2.14,3.65,4.09,7.41,6.4,10.94.46.7,2.23,1,3.27.75,1.21-.24,2.28-1.21,3.71-2a32.75,32.75,0,0,1,1.88,3c.89,1.81,2,2.19,3.8,1.13,5.57-3.31,11.18-6.54,16.79-9.78q7.25-4.2,14.51-8.37a11.41,11.41,0,0,0,5.33-12c-2.27-10.65-4.75-21.26-6.7-32a118.07,118.07,0,0,1-1.3-16,5.45,5.45,0,0,0-3.1-5.15Q78.55,106.6,66.09,99.18c-2.26-1.35-3.5-1.25-4.41,1.33-.72,2.08-1.9,2.61-4,1.25-2.82-1.82-4.26-1.25-5.93,1.66q-9.65,16.86-19.31,33.71c-.32.56-.55,1.16-1,2.16l-14-8c2.5-4.33,4.9-8.56,7.37-12.76,4.12-7,8.35-13.91,12.39-21a47.28,47.28,0,0,0,2.51-6.2c-3.08-1.2-4.34,0-5.44,1.93Q24.7,110.12,15,126.83c-.41.71-.91,1.36-1.48,2.21L0,121.23c2.41-4.31,4.75-8.54,7.14-12.74q5.72-10,11.5-19.94c.84-1.46,1.86-2.83,2.57-4.34.9-1.88.94-3.3-1.58-4.38-2.95-1.27-5.57-3.3-8.41-5L25,51.38c2.46,1.44,4.91,2.8,7.28,4.27,4.11,2.55,4.62,2.4,6.88-1.67,3.35-6,6.8-12,10.23-18,3.3-5.73,6.63-11.45,10.17-17.58l13.54,8c-1.06,1.84-2,3.46-2.91,5.06Q61.51,46.27,52.86,61.1a12.52,12.52,0,0,0-1.48,3.33c-.16.71.13,2.1.53,2.24a5,5,0,0,0,2.86-.19,3,3,0,0,0,1.33-1.43c2.36-4.14,4.67-8.32,7-12.48q6.13-10.92,12.29-21.84c1-1.83,2.22-2.11,4.11-.87,3.46,2.25,7.1,4.24,11,6.52A34,34,0,0,1,89,39.69Q80.65,54.11,72.26,68.47c-.8,1.38-1.64,2.74-2.47,4.09-1.85,3-1.58,4,1.48,5.67.65.36,1.29.74,1.86,1.07,0,.32.14.55.08.68-2.46,5-2,5.88,2.82,8.49,6.28,3.36,12.43,7,18.64,10.45,2.86,1.6,3.27,1.44,4.66-1.47a57.13,57.13,0,0,1,12-16.92c2.78-2.65,2.74-3.82.7-7.36a111.67,111.67,0,0,1-11.39-26.49c-4.48-16.48,3.07-28.86,16-36.28,8.39-4.82,17.83-6.84,27.26-8.56,10.81-2,21.75-2,32.69-1.69,8.36.24,16.74.88,24.74,3.48,6.71,2.18,13.08,5.19,18.27,10.25A28.09,28.09,0,0,1,228,33.57c.51,12.6-3,24.28-8.79,35.34-2.17,4.15-1.8,5.52,1.81,8.69,4.23,3.72,8.36,7.56,12.35,11.54A25.59,25.59,0,0,1,237,94.46c1.4,2.41,2.31,2.63,4.63,1.24,5.24-3.14,10.48-6.3,15.86-9.18,2-1.07,2.23-2.22,1.09-3.76-1.54-2.08-1.24-3.41,1-4.73,2.82-1.64,3-2.77,1.28-5.78-4.16-7.16-8.43-14.25-12.6-21.4-2.78-4.77-5.46-9.6-8.31-14.61l13.88-7.81c2.45,4.21,5,8.49,7.45,12.79q7,12.12,13.86,24.29c.83,1.47,1.68,2.58,3.48,1.48s1-2.5.18-3.86q-9.6-16.31-19.16-32.64c-.76-1.3-1.39-2.67-2.15-4.12,4-2.39,8-4.73,11.88-7.11,1.32-.8,2.13-.64,2.93.79q7.4,13.17,14.93,26.25c1.82,3.18,3.7,6.34,5.7,9.41,1.31,2,3,1.26,4.67.3l8.08-4.72c4.66,8,9.19,15.75,13.64,23.38-3.37,2-6.3,3.9-9.31,5.61-1.63.93-1.71,1.94-.82,3.46q7.91,13.53,15.72,27.11c2,3.41,3.82,6.87,5.82,10.47l-13.86,7.9c-3.67-6.48-7.12-12.62-10.63-18.73-3.71-6.45-7.44-12.89-11.32-19.23-.35-.56-2.14-.75-2.92-.38-.52.25-.9,2-.54,2.7,2.73,5.12,5.6,10.18,8.54,15.19,4.37,7.45,8.84,14.85,13.33,22.39l-13.91,8.13c-5.36-9.28-10.6-18.37-15.84-27.46-1.59-2.76-3.18-5.54-4.74-8.33-1.83-3.28-2.91-3.6-6.35-1.84-.66.34-1.34.66-2,1-3.61-4.71-3.65-4.78-8.88-1.83-6,3.36-11.81,6.91-17.79,10.26-2,1.13-2.59,2.77-2.6,4.86,0,5,.31,10.06-.23,15-.75,6.93-.91,14.12-4,20.52a76.77,76.77,0,0,1-7.9,12.25c-2.42,3.28-2.48,3.94,1,5.63,2,1,3.53,2.22,3,4.78-.83,3.9,1.37,5.54,4.55,7.21,8,4.2,15.7,8.84,23.53,13.31,4.34,2.49,5.47,4.5,9.23-1.52,2,.69,4.25,2.22,5.95,1.78,1.46-.38,2.43-3,3.44-4.69q9-15.36,17.84-30.77c.56-1,1.18-1.88,1.86-3l13.66,8c-2.87,4.88-5.59,9.47-8.29,14.08q-5.26,9-10.51,18a35.09,35.09,0,0,0-2.77,4.86c-.34.9.21,2.14.36,3.23,1.18-.43,3-.51,3.46-1.36,7-11.73,13.77-23.57,20.62-35.38.22-.39.48-.78.87-1.4l13.69,7.78c-6.92,12.1-13.72,24-20.55,35.93-2,3.55-1.95,4.08,1.61,6.23,2.41,1.46,4.9,2.79,7.63,4.34L305.73,244.4c-3.1-1.84-6-3.48-8.76-5.21-2.07-1.27-3.23-1.22-4.53,1.34-2.92,5.77-6.33,11.31-9.58,16.92-3.39,5.85-6.86,11.65-10.2,17.52-1.08,1.92-2.11,2.22-4,1-2.76-1.76-5.72-3.24-8.63-4.77-2-1-2.38-2.22-1.16-4.28q9.9-16.7,19.55-33.54a5.37,5.37,0,0,0,.58-3.22,2.82,2.82,0,0,0-1.7-1.84c-.47-.15-1.53.61-1.88,1.22-6.78,11.73-13.49,23.5-20.23,35.26-.46.8-1,1.53-1.66,2.44l-13.33-7.93c.87-1.8,1.64-3.78,2.72-5.58,3.92-6.51,8-12.92,11.9-19.47,2.38-4,4.48-8.21,6.72-12.31,1-1.88.63-3.2-1.45-3.94-2.3-.82-3.49-1.85-1.6-4.43,1.51-2.06.42-4.14-2.33-5.66-7.8-4.33-15.53-8.79-23.42-13-1.66-.89-3.86-.71-5.78-1.18a9.68,9.68,0,0,1-3.16-1.32c-3.82-2.59-5.05-2.63-8.74.2-2,1.55-3.75,1-5.67-.65,1.5-.3,2.73-.59,4-.78,2.38-.37,3.3-2.25,1.55-3.82-4.59-4.13-9.18-8.36-15.76-9.16-5-.61-6.47,1.22-5.35,6.32.26,1.19-.72,2.61-.83,3.95a18.22,18.22,0,0,0,.29,3.82c.14,1.13.88,2.46.5,3.33-3.1,7.12-2.56,14.7-3,22.14a4.41,4.41,0,0,1-2.34,4.11c-2.08,1.17-4.13,2.42-6.79,4,.19-2.55.35-4.36.47-6.17.41-6.37.76-12.75,1.21-19.11.2-2.78-.63-3.58-4.54-3.65,0,1,0,2,0,3-.18,8.66-.35,17.33-.61,26a2.64,2.64,0,0,1-1,2c-2.52,1.18-5.15,2.13-8.36,3.41,0-5.14,0-9.81,0-14.47.07-5.95.16-11.9.32-17.85,0-1.79-.29-2.83-2.45-2.8s-2.19,1.14-2.18,2.73c0,10.86,0,21.72,0,32.62a69.25,69.25,0,0,1-6.58-4.1,4.57,4.57,0,0,1-1.25-3.24c-.1-8.22-.05-16.44-.05-24.66a4.25,4.25,0,0,1,.07-1.13c.38-1.38,1.44-2.92-.61-3.83-2.28-1-6.36-.43-7,1.2-.36.89.22,2.31.7,3.35.6,1.3,2.1,2.4,2.21,3.68.58,6.82.85,13.66,1.21,20.5a11.14,11.14,0,0,1-.17,1.48c-3.49-2-7.13-3.42-9.9-5.86-1.29-1.14-1.21-4.21-1.17-6.39a25.83,25.83,0,0,0-2.72-11.8c-2.28-4.94-3.77-10.45-2.2-16.22.27-1-.78-3-1.77-3.54a16.63,16.63,0,0,0-6.25-2.2,11.07,11.07,0,0,0-5.05,1,49.25,49.25,0,0,0-4.94,2.68c-3,1.58-3.47,3.27-2,6.22.41.79.76,2.44.48,2.6a5.45,5.45,0,0,1-3.42.94,13.1,13.1,0,0,1-4-1.94,4,4,0,0,0-4.63,0c-9.92,5.88-19.92,11.6-29.95,17.29-4.74,2.68-4.88,2.88-2.39,7.73a2.15,2.15,0,0,1,.1.8c-.07.11-.1.21-.17.25-5.44,3.34-5.38,3.46-2.16,8.88,6.26,10.49,12.4,21.05,18.57,31.6.37.64.61,1.35,1.06,2.35L77,267.26c-6-10.32-11.86-20.49-17.74-30.66-1.36-2.36-2.65-4.76-4.11-7-.41-.65-1.55-1.49-2-1.32a3.26,3.26,0,0,0-1.84,2.06,4.72,4.72,0,0,0,.8,2.85Q62,250.21,72,267.22c.67,1.16,1.21,2.21-.32,3.08l-12.24,6.86c-1.93-3.17-3.81-6.17-5.59-9.22-4.25-7.28-8.45-14.6-12.67-21.9l-3.76-6.47c-1.14-2-2.37-1.44-3.92-.38C30.85,241,28.08,242.56,24.88,244.53ZM202.59,61.11c.62-1.77.89-2.87,1.37-3.87a55.13,55.13,0,0,0,5.73-18.38c.8-7.51-.14-11.84-7.49-15.27-7.51-3.5-15.64-4.81-23.76-5.19s-16.55.24-24.82.53a36.07,36.07,0,0,0-7.56.88c-6.41,1.62-12.82,3.34-19.12,5.35-6.62,2.12-9.68,8.49-8.63,15.2,1.2,7.76,4.5,14.6,8,21.44,1.78,3.51,2.68,3.76,6.34,2,8-3.83,16-7,25-7.66,11.61-.8,23.08-.41,34.43,2.18C195.6,59.11,199.05,60.16,202.59,61.11ZM140.93,161.72l.19-.63a72.59,72.59,0,0,0,8.62-1.15,84.94,84.94,0,0,0,10.84-3.59c.82-.33,1.5-1.81,1.61-2.83.07-.6-1-1.51-1.78-2a29.33,29.33,0,0,0-3.81-1.76c-7.49-3.19-14.86-6.62-21.41-11.54-7.89-5.94-16-11.37-25.89-13.48-4.72-1-7.38-.6-7,5.24.41,5.4,2,10.73,3.17,16.06a13,13,0,0,0,10,10.3C123.94,158.42,132.46,160,140.93,161.72ZM233,131l-.53-.13c0-.66,0-1.32-.1-2-.57-5.61-2.34-6.76-7.49-4.34-5.92,2.79-11.81,5.71-17.49,8.95-6.57,3.75-12.78,8.16-19.39,11.83-4.22,2.34-8.92,3.78-13.33,5.8a3.87,3.87,0,0,0-2.06,2.49,3.11,3.11,0,0,0,1.76,2.4c4.72,1.64,9.44,3.52,14.33,4.42,9.26,1.72,18.23-1.09,27.16-3,5.8-1.22,11.23-4,13.25-10.19C230.85,142,231.75,136.47,233,131Zm-65.78,26.6c-1.94.85-3.36,1-3.92,1.81a68.5,68.5,0,0,0-4.38,7.28c-.48.86-.32,2.38-1,2.78-4,2.47-3.32,6.06-2.32,9.51a16.52,16.52,0,0,0,3,5,14.49,14.49,0,0,0,2.76,2.15c.68-5.06,1.67-9,4.7-12.1a3.65,3.65,0,0,0,1-2.22C167.28,167.37,167.23,162.92,167.23,157.64ZM168,157c0,4.42-.11,8.47.06,12.51a14.06,14.06,0,0,0,1.2,4.83c1.43,3.28,3.08,6.46,4.83,10.07a4.09,4.09,0,0,0,1.81-.21c2.6-1.26,4.89-9.27,3.52-12-1.61-3.24-3-6.6-4.91-9.68C173.05,160.1,171.46,157.59,168,157Z"/></g></g></svg>