<svg width="410" height="242" viewBox="0 0 410 242" fill="none" xmlns="http://www.w3.org/2000/svg">
<path d="M39.1569 150.45C44.4326 166.963 48.9246 199.305 48.9246 199.305L32.3017 204.636C27.7171 206.106 17.2399 186.189 8.90998 160.155C0.580031 134.122 -2.46811 111.82 2.14113 110.331L18.764 105.024C18.764 105.024 35.3313 138.496 39.1569 150.45Z" fill="#292929"/>
<path d="M16.9931 109.169C20.9545 117.293 32.8077 141.856 35.8928 151.5C40.1195 164.708 43.9143 188.703 45.1483 196.926L31.9253 201.164C29.0253 199.187 20.5904 185.312 12.1803 159.105C3.77009 132.899 2.61624 116.694 3.82563 113.389L16.9993 109.163L16.9931 109.169ZM18.764 105.024L2.14113 110.331C-2.46811 111.82 0.580031 134.109 8.90998 160.149C16.9314 185.287 26.9891 204.716 31.8019 204.716C31.9716 204.715 32.1402 204.688 32.3017 204.636L48.9246 199.305C48.9246 199.305 44.4264 166.963 39.1569 150.45C35.3313 138.496 18.7948 105.005 18.7948 105.005L18.764 105.024Z" fill="#F7CB15"/>
<path d="M42.1557 149.505C50.4857 175.544 53.5153 197.847 48.9431 199.317C44.3709 200.787 33.8813 180.876 25.5514 154.836C17.2214 128.796 14.1918 106.476 18.764 105.024C23.3362 103.572 33.8258 123.446 42.1557 149.505Z" fill="#F7CB15"/>
<path d="M7.02185 124.521C7.12058 125.565 7.25015 126.684 7.41058 127.888L19.0725 124.175C18.9676 123.434 18.8627 122.699 18.7763 121.982C18.727 121.587 18.6838 121.21 18.6406 120.827L7.02185 124.521Z" fill="#F7CB15"/>
<path d="M18.511 119.326C18.2554 116.913 18.1832 114.484 18.295 112.061L7.18844 115.613C6.7812 116.737 6.62694 119.258 6.9046 123.026L18.511 119.326Z" fill="#F7CB15"/>
<path d="M34.813 176.687C34.0294 174.927 33.2458 173.086 32.4683 171.183L20.7447 174.951C21.553 176.916 22.3489 178.738 23.1202 180.45L34.813 176.687Z" fill="#F7CB15"/>
<path d="M42.3778 191.02C41.3289 189.445 40.2429 187.616 39.1014 185.503C37.8673 183.242 36.6333 180.74 35.3992 178.047L23.6756 181.803C26.4954 187.808 29.0006 192.132 30.901 194.702L42.3778 191.02Z" fill="#F7CB15"/>
<path d="M31.8389 195.919C32.2689 196.475 32.7664 196.975 33.3198 197.408L44.4264 193.85C44.0315 193.361 43.6304 192.836 43.1923 192.268L31.8389 195.919Z" fill="#F7CB15"/>
<path d="M61.5306 143.277C68.3179 164.56 74.1304 206.255 74.1304 206.255L52.7008 213.137C46.7835 215.034 33.2828 189.358 22.5464 155.788C11.81 122.217 7.90421 93.4528 13.8216 91.5562L35.2449 84.6864C35.2449 84.6864 56.6005 127.882 61.5306 143.277Z" fill="#292929"/>
<path d="M33.4741 88.8565C38.1697 98.4507 54.1694 131.484 58.2726 144.322C63.8876 161.898 68.8856 194.14 70.3233 203.876L52.0406 209.739C48.505 208.145 37.2318 190.47 25.8105 154.756C14.3892 119.042 13.2909 98.0801 15.2469 94.7255L33.4741 88.8812V88.8565ZM35.2449 84.6864L13.8216 91.5562C7.90421 93.4528 11.81 122.205 22.5464 155.806C32.9126 188.209 45.8517 213.26 52.0591 213.26C52.2687 213.26 52.4768 213.226 52.6761 213.162L74.1057 206.292C74.1057 206.292 68.3179 164.597 61.5059 143.315C56.5696 127.901 35.2203 84.7235 35.2203 84.7235L35.2449 84.6864Z" fill="#F7CB15"/>
<path d="M65.4055 142.036C76.1481 175.606 80.0539 204.358 74.1365 206.286C68.2192 208.213 54.7123 182.476 43.9759 148.887C33.2396 115.298 29.3276 86.583 35.2449 84.6864C41.1623 82.7898 54.663 108.465 65.4055 142.036Z" fill="#F7CB15"/>
<path d="M19.1281 109.138C19.2638 110.51 19.4407 111.986 19.6587 113.568L34.7143 108.731C34.5662 107.748 34.4305 106.785 34.3071 105.846C34.2392 105.327 34.1837 104.826 34.1281 104.326L19.1281 109.138Z" fill="#F7CB15"/>
<path d="M33.9368 102.398C33.5818 99.2279 33.4684 96.035 33.5975 92.8474L19.3008 97.4313C18.7825 98.9017 18.6036 102.213 18.9923 107.192L33.9368 102.398Z" fill="#F7CB15"/>
<path d="M55.4775 177.985C54.4409 175.656 53.4166 173.228 52.3923 170.72L37.2503 175.575C38.3116 178.17 39.3482 180.573 40.3355 182.828L55.4775 177.985Z" fill="#F7CB15"/>
<path d="M65.3562 196.852C63.9925 194.77 62.5795 192.355 61.0863 189.574C59.4882 186.591 57.8716 183.285 56.2611 179.733L41.1561 184.577C44.8213 192.509 48.0978 198.168 50.5659 201.597L65.3562 196.852Z" fill="#F7CB15"/>
<path d="M51.7938 203.203C52.3594 203.937 53.0144 204.597 53.7436 205.167L68.0402 200.583C67.5281 199.966 67.0036 199.243 66.473 198.495L51.7938 203.203Z" fill="#F7CB15"/>
<path d="M90.7779 133.899C99.5521 161.335 107.018 215.089 107.018 215.089L79.3937 223.942C71.7671 226.413 54.3606 193.287 40.5206 150.011C26.6805 106.735 21.6455 69.6988 29.2721 67.2277L56.8905 58.3748C56.8905 58.3748 84.4225 114.031 90.7779 133.899Z" fill="#292929"/>
<path d="M55.1258 62.5387C60.6791 73.8195 82.0963 118.004 87.5138 134.95C94.9182 158.197 101.539 201.257 103.211 212.704L78.5298 220.624C77.1909 220.309 72.304 216.213 64.2887 200.485C57.3594 186.893 50.0969 168.594 43.8094 148.967C37.5218 129.34 32.8138 110.22 30.5617 95.1393C27.964 77.6806 29.5682 71.5028 30.4753 70.4649L55.1566 62.5572L55.1258 62.5387ZM56.8905 58.3748L29.2721 67.2277C21.6455 69.6988 26.6805 106.766 40.5206 150.011C53.8793 191.786 70.5578 224.072 78.5607 224.072C78.8434 224.073 79.1246 224.029 79.3937 223.942L107.018 215.089C107.018 215.089 99.5521 161.342 90.7779 133.899C84.4225 114.031 56.8905 58.3748 56.8905 58.3748Z" fill="#F7CB15"/>
<path d="M95.7635 132.299C109.61 175.545 114.645 212.612 107.018 215.083C99.3917 217.554 81.9852 184.428 68.1451 141.152C54.3051 97.8762 49.2639 60.8398 56.8904 58.3686C64.517 55.8975 81.9235 89.0233 95.7635 132.299Z" fill="#F7CB15"/>
<path d="M32.3634 88.3437C32.5609 90.1847 32.8138 92.1678 33.1224 94.293L52.5034 88.078C52.2997 86.7621 52.1023 85.4586 51.9357 84.1921C51.837 83.5002 51.7506 82.8268 51.6704 82.1534L32.3634 88.3437Z" fill="#F7CB15"/>
<path d="M51.368 79.5217C50.8485 75.2654 50.6423 70.9767 50.751 66.6902L32.3202 72.5962C31.7032 74.5608 31.4996 79.0027 32.0857 85.6934L51.368 79.5217Z" fill="#F7CB15"/>
<path d="M80.5599 181.327C79.1859 178.185 77.8182 174.918 76.4566 171.529L56.9213 177.787C58.3405 181.29 59.7227 184.527 61.074 187.573L80.5599 181.327Z" fill="#F7CB15"/>
<path d="M93.6718 206.823C91.8701 204.006 89.9696 200.744 88.0136 196.982C85.8972 192.948 83.7499 188.487 81.6027 183.693L62.1353 189.933C67.016 200.645 71.3537 208.3 74.5993 212.933L93.6718 206.823Z" fill="#F7CB15"/>
<path d="M76.2159 215.114C76.9579 216.108 77.8201 217.007 78.7828 217.789L97.2074 211.901C96.5287 211.03 95.8438 210.048 95.1465 209.066L76.2159 215.114Z" fill="#F7CB15"/>
<path d="M370.837 150.45C365.561 166.963 361.069 199.305 361.069 199.305L377.686 204.636C382.277 206.106 392.754 186.189 401.084 160.155C409.414 134.122 412.443 111.807 407.871 110.337L391.236 105.024C391.236 105.024 374.669 138.496 370.837 150.45Z" fill="#292929"/>
<path d="M393.007 109.169L406.18 113.395C407.414 116.694 406.18 132.892 397.826 159.111C389.471 185.33 381.005 199.193 378.081 201.17L364.858 196.932C366.092 188.71 369.856 164.721 374.082 151.506C377.167 141.863 389.021 117.299 392.982 109.176L393.007 109.169ZM391.236 105.024C391.236 105.024 374.668 138.514 370.874 150.468C365.598 166.982 361.106 199.323 361.106 199.323L377.723 204.655C377.887 204.706 378.057 204.733 378.229 204.735C383.042 204.735 393.081 185.306 401.121 160.168C409.444 134.128 412.48 111.82 407.908 110.349L391.236 105.024Z" fill="#F7CB15"/>
<path d="M367.844 149.505C359.514 175.545 356.484 197.847 361.057 199.317C365.629 200.787 376.118 180.876 384.448 154.836C392.778 128.796 395.808 106.494 391.236 105.024C386.664 103.554 376.174 123.446 367.844 149.505Z" fill="#F7CB15"/>
<path d="M402.978 124.521C402.879 125.565 402.75 126.684 402.589 127.888L390.927 124.175C391.032 123.434 391.137 122.699 391.223 121.982C391.273 121.587 391.316 121.21 391.359 120.827L402.978 124.521Z" fill="#F7CB15"/>
<path d="M391.513 119.326C391.769 116.913 391.841 114.484 391.729 112.061L402.836 115.613C403.243 116.737 403.398 119.258 403.12 123.026L391.513 119.326Z" fill="#F7CB15"/>
<path d="M375.187 176.687C375.97 174.927 376.754 173.086 377.531 171.183L389.255 174.951C388.447 176.916 387.651 178.738 386.88 180.45L375.187 176.687Z" fill="#F7CB15"/>
<path d="M367.628 191.02C368.671 189.445 369.757 187.616 370.898 185.503C372.132 183.242 373.367 180.74 374.601 178.047L386.324 181.803C383.523 187.82 381.012 192.107 379.117 194.702L367.628 191.02Z" fill="#F7CB15"/>
<path d="M378.155 195.919C377.721 196.478 377.217 196.978 376.655 197.408L365.549 193.85C365.944 193.362 366.345 192.836 366.752 192.268L378.155 195.919Z" fill="#F7CB15"/>
<path d="M348.469 143.277C341.682 164.56 335.869 206.255 335.869 206.255L357.299 213.137C363.216 215.034 376.717 189.358 387.453 155.788C398.19 122.217 402.096 93.4651 396.178 91.5376L374.755 84.6678C374.755 84.6678 353.399 127.882 348.469 143.277Z" fill="#292929"/>
<path d="M376.526 88.8565L394.753 94.7007C396.709 98.0553 395.623 118.992 384.189 154.731C372.756 190.47 361.495 208.145 357.959 209.714L339.677 203.87C341.114 194.134 346.112 161.891 351.727 144.315C355.83 131.502 371.83 98.4507 376.526 88.8503V88.8565ZM374.755 84.6864C374.755 84.6864 353.399 127.864 348.469 143.277C341.682 164.56 335.869 206.255 335.869 206.255L357.299 213.137C357.498 213.202 357.706 213.235 357.916 213.236C364.13 213.236 377.044 188.191 387.429 155.781C398.165 122.211 402.071 93.459 396.154 91.5315L374.73 84.6617L374.755 84.6864Z" fill="#F7CB15"/>
<path d="M344.6 142.036C333.864 175.606 329.952 204.358 335.869 206.286C341.787 208.213 355.287 182.476 366.024 148.887C376.76 115.298 380.672 86.5645 374.755 84.6679C368.837 82.7713 355.337 108.465 344.6 142.036Z" fill="#F7CB15"/>
<path d="M390.853 109.138C390.718 110.51 390.541 111.986 390.323 113.568L375.286 108.731C375.434 107.748 375.569 106.785 375.693 105.846C375.761 105.327 375.816 104.826 375.878 104.326L390.853 109.138Z" fill="#F7CB15"/>
<path d="M376.081 102.398C376.437 99.228 376.55 96.0351 376.421 92.8474L390.717 97.4314C391.236 98.9017 391.415 102.213 391.026 107.192L376.081 102.398Z" fill="#F7CB15"/>
<path d="M354.522 177.985C355.559 175.656 356.583 173.228 357.608 170.72L372.756 175.575C371.701 178.17 370.658 180.573 369.67 182.828L354.522 177.985Z" fill="#F7CB15"/>
<path d="M344.644 196.852C346.007 194.77 347.426 192.355 348.914 189.574C350.512 186.591 352.128 183.285 353.739 179.733L368.844 184.577C365.179 192.509 361.902 198.168 359.434 201.597L344.644 196.852Z" fill="#F7CB15"/>
<path d="M358.206 203.203C357.642 203.938 356.987 204.598 356.256 205.167L341.96 200.583C342.472 199.966 342.996 199.243 343.527 198.495L358.206 203.203Z" fill="#F7CB15"/>
<path d="M319.222 133.899C310.448 161.335 302.963 215.089 302.963 215.089L330.588 223.942C338.214 226.413 355.621 193.287 369.461 150.011C383.301 106.735 388.336 69.6989 380.709 67.2277L353.109 58.3748C353.109 58.3748 325.577 114.031 319.222 133.899Z" fill="#292929"/>
<path d="M354.88 62.5387L379.524 70.4279C380.432 71.4658 382.036 77.6436 379.438 95.1023C377.186 110.201 372.49 129.328 366.215 148.949C359.94 168.57 352.64 186.869 345.736 200.466C337.683 216.269 332.778 220.328 331.501 220.612L306.789 212.704C308.461 201.257 315.051 158.197 322.486 134.95C327.904 118.004 349.352 73.8195 354.88 62.5387ZM353.109 58.3748C353.109 58.3748 325.577 114.031 319.222 133.899C310.448 161.335 302.963 215.089 302.963 215.089L330.588 223.942C330.857 224.029 331.138 224.073 331.421 224.072C339.442 224.072 356.102 191.786 369.461 150.011C383.301 106.766 388.336 69.6989 380.709 67.2277L353.109 58.3748Z" fill="#F7CB15"/>
<path d="M314.236 132.299C300.396 175.545 295.355 212.612 302.982 215.083C310.608 217.554 328.015 184.428 341.855 141.152C355.695 97.8762 360.736 60.8398 353.109 58.3686C345.483 55.8975 328.076 89.0233 314.236 132.299Z" fill="#F7CB15"/>
<path d="M377.624 88.3437C377.427 90.1847 377.174 92.1678 376.865 94.293L357.484 88.078C357.688 86.7621 357.885 85.4586 358.058 84.1921C358.151 83.5002 358.237 82.8268 358.317 82.1534L377.624 88.3437Z" fill="#F7CB15"/>
<path d="M358.632 79.5217C359.151 75.2655 359.358 70.9768 359.249 66.6902L377.68 72.5963C378.297 74.5609 378.5 79.0028 377.914 85.6934L358.632 79.5217Z" fill="#F7CB15"/>
<path d="M329.446 181.327C330.816 178.185 332.182 174.918 333.543 171.529L353.078 177.787C351.659 181.29 350.277 184.527 348.926 187.573L329.446 181.327Z" fill="#F7CB15"/>
<path d="M316.328 206.823C318.13 204.006 320.03 200.744 321.986 196.982C324.103 192.948 326.25 188.487 328.397 183.693L347.865 189.933C342.984 200.645 338.646 208.3 335.401 212.933L316.328 206.823Z" fill="#F7CB15"/>
<path d="M333.778 215.114C333.039 216.107 332.181 217.006 331.223 217.789L312.792 211.901C313.471 211.03 314.156 210.048 314.853 209.066L333.778 215.114Z" fill="#F7CB15"/>
<path d="M324.973 144.735C247.752 114.981 162.248 114.981 85.0272 144.735L78.8568 128.728C160.034 97.4507 249.917 97.4507 331.094 128.728L324.973 144.735Z" fill="#292929"/>
<path d="M205.127 105.271C248.209 105.265 290.922 113.224 331.119 128.747L324.948 144.76C286.701 129.998 246.061 122.431 205.071 122.439C203.096 122.439 201.128 122.439 199.147 122.495C160.09 123.155 121.451 130.683 84.9963 144.735L78.826 128.729C117.147 113.951 157.762 106.028 198.82 105.321C200.9 105.283 202.992 105.271 205.071 105.271H205.127ZM205.127 101.836C203.022 101.836 200.9 101.836 198.808 101.892C157.351 102.608 116.342 110.606 77.6475 125.522L74.4512 126.758L75.6853 129.958L81.8556 145.965L83.0897 149.165L86.2859 147.929C122.365 134.013 160.606 126.554 199.265 125.893C201.208 125.856 203.183 125.843 205.127 125.843C245.696 125.836 285.92 133.323 323.776 147.929L326.978 149.165L328.212 145.965L334.352 129.958L335.586 126.752L332.39 125.516C291.801 109.853 248.675 101.823 205.176 101.83L205.127 101.836Z" fill="#F7CB15"/>
<path d="M165.544 234.871C164.919 219.632 164.557 204.053 164.458 188.135C164.429 183.193 164.429 178.302 164.458 173.463C162.866 169.169 161.601 165.468 160.657 162.596C159.886 160.254 157.683 153.44 155.227 144.118C154.974 143.154 154.135 139.941 153.061 135.425C147.304 111.257 148.563 107.347 150.346 104.993C152.13 102.639 153.364 103.245 156.313 99.5566C159.145 96.0228 158.935 94.3177 161.743 90.2897C163.501 87.7815 165.494 84.9521 168.802 83.2223C173.812 80.609 179.291 81.8755 181.827 82.6786C183.92 80.982 186.313 79.6933 188.88 78.8792C193.124 77.576 197.661 77.576 201.906 78.8792C202.717 76.3476 204.212 74.0899 206.225 72.3554C210.34 68.8896 215.166 69.0378 217.078 69.0934C221.247 69.259 225.249 70.7767 228.481 73.418C229.425 72.0897 231.918 69.0069 236.077 67.9814C241.575 66.6285 246.202 69.8348 249.102 71.787C253.332 74.7349 256.561 78.9057 258.358 83.7412C260.308 89.2333 260.036 95.1085 259.981 96.2391C259.72 98.951 259.72 101.682 259.981 104.394C260.196 106.232 260.559 108.05 261.067 109.83C263.288 112.629 266.669 117.862 265.954 123.959C265.602 126.962 264.436 128.648 258.358 136.457C245.456 153.014 241.982 156.64 239.902 158.735C236.453 162.213 233.417 164.968 231.215 166.889C231.077 187.359 233.263 207.778 237.731 227.754C230.644 233.289 222.526 237.353 213.851 239.708C190.984 245.88 171.733 237.793 165.544 234.871Z" fill="#F7CB15"/>
<path d="M164.23 101.972C164.736 105.234 165.464 108.768 165.544 110.621C165.624 113.358 165.482 114.328 166.087 115.693C167.321 118.486 170.499 119.561 171.875 120.018C177.934 122.131 186.233 120.636 187.615 116.577C187.888 115.693 187.888 114.748 187.615 113.865C186.654 115.621 185.211 117.066 183.456 118.028C179.254 120.265 174.688 118.646 172.967 118.028C171.692 117.572 170.476 116.964 169.345 116.218C170.829 115.849 172.342 115.605 173.868 115.489C175.195 115.396 176.527 115.396 177.854 115.489C178.844 113.963 179.463 112.226 179.662 110.417C179.947 108.295 179.567 106.137 178.576 104.239C178.142 103.438 177.593 102.706 176.947 102.065C176.043 102.146 175.135 102.146 174.232 102.065C173.063 101.944 171.911 101.7 170.795 101.336C169.326 100.862 167.927 100.193 166.636 99.3465C168.476 99.7551 170.368 99.878 172.245 99.711C174.713 99.4886 176.564 99.3156 177.854 97.8947C178.909 96.7148 178.977 95.2382 179.088 92.279C179.186 90.1847 179.223 89.1098 178.545 87.9545C177.761 86.7038 176.533 85.7966 175.108 85.4154C172.232 84.6679 169.598 86.5398 167.87 87.7692C163.748 90.7037 161.533 94.8985 160.632 96.6468C159.176 99.4701 159.065 100.842 157.195 102.627C155.671 104.085 154.585 104.276 153.58 105.716C152.204 107.656 152.259 110.04 152.494 111.696C154.386 112.705 156.59 112.963 158.664 112.419C162.28 111.344 164.279 106.612 164.23 101.972Z" fill="#292929"/>
<path d="M183.092 85.6069C182.549 87.417 183.709 88.1954 185.264 93.218C186.202 96.2514 185.733 95.8374 187.251 102.998C189.226 112.295 189.719 111.721 189.787 114.773C189.818 116.966 189.571 118.479 190.509 120.388C191.444 122.22 192.964 123.686 194.828 124.552C196.398 125.247 198.12 125.529 199.829 125.372C201.538 125.214 203.179 124.621 204.596 123.65C206.204 122.511 207.459 120.942 208.218 119.122C210.519 114.037 208.563 108.965 208.033 107.711C208.097 109.98 207.793 112.244 207.132 114.414C206.515 116.453 206.027 118.028 204.596 119.486C204.213 119.876 201.344 122.693 197.358 122.019C195.439 121.664 193.709 120.637 192.477 119.122C195.108 119.058 197.696 118.441 200.073 117.312C200.814 113.487 200.875 109.562 200.252 105.716C199.914 103.608 199.371 101.539 198.629 99.538C196.171 100.56 193.492 100.935 190.848 100.625C191.866 100.156 193.316 99.4392 195.007 98.4507C196.101 97.8952 197.135 97.2286 198.092 96.4614C201.042 93.6011 200.141 88.4302 200.079 88.1274C199.919 87.2873 199.135 83.0986 195.556 81.2453C190.855 78.8112 184.191 81.9434 183.092 85.6069Z" fill="#292929"/>
<path d="M204.238 80.1765C205.327 81.4301 206.131 82.9057 206.595 84.501C207.163 86.5459 206.755 87.4788 207.496 88.3004C208.539 89.4619 210.544 88.9491 214.37 88.3004C222.638 86.9104 223.965 87.5159 225.044 85.9467C226.655 83.6238 225.248 80.1148 224.686 78.7C224.427 78.0822 222.552 73.5415 218.516 72.1823C213.907 70.6255 207.514 73.6465 204.238 80.1765Z" fill="#292929"/>
<path d="M231.758 74.9253C231.622 75.7038 232.257 76.0312 232.844 77.8228C233.418 79.6374 233.543 81.5647 233.208 83.4385C236.176 83.0863 238.699 82.8577 240.612 82.7095C244.098 82.4438 244.931 82.4871 245.857 82.8948C248.88 84.1798 249.331 87.4541 250.38 87.2193C251.429 86.9846 252.027 83.3396 251.287 80.158C251.108 79.3858 250.151 75.2651 246.4 72.9114C240.674 69.3282 232.227 72.2812 231.758 74.9253Z" fill="#292929"/>
<path d="M212.944 159.519C216.184 158.676 219.336 157.521 222.354 156.072C228.117 153.292 233.327 149.486 237.731 144.84C236.541 148.222 234.556 151.267 231.943 153.718C224.44 160.668 214.629 159.711 212.944 159.519Z" fill="#292929"/>
<path d="M260.166 113.871C259.197 112.159 258.185 111.183 256.544 108.07C255.168 105.456 255.088 104.641 253.835 101.731C251.923 97.3146 249.433 93.1721 246.431 89.4125C244.407 86.7374 243.438 85.8849 242.111 85.4277C241.451 85.2053 240.125 84.8841 235.775 85.7922C233.134 86.342 232.825 86.6262 229.808 87.4232C225.211 88.6587 223.965 88.4796 219.676 89.777C218.275 90.197 217.146 90.5986 216.418 90.8643L209.174 91.5871L205.558 91.9516C205.247 93.3846 205.309 94.8737 205.737 96.2761C206.749 99.4577 209.52 101.039 211.71 102.256C213.691 103.356 222.021 107.6 231.789 104.431C234.111 103.676 236.308 102.577 238.304 101.169C239.354 98.5214 239.525 95.6059 238.792 92.8535C240.036 94.4115 240.91 96.232 241.348 98.1777C241.786 100.123 241.777 102.143 241.322 104.085C242.437 107.892 244.727 111.248 247.862 113.673C246.254 113.341 244.618 113.159 242.975 113.129C241.032 113.103 239.092 113.285 237.188 113.673C224.44 116.187 218.06 117.442 215.659 118.566C210.366 121.108 205.63 124.678 201.727 129.068C197.612 133.463 194.305 138.552 191.959 144.099C192.611 141.685 192.855 139.18 192.681 136.686C192.496 134.214 192.348 132.145 190.873 131.249C189.207 130.242 186.899 131.348 186.35 131.614C184.652 132.509 183.264 133.898 182.37 135.598C180.945 137.958 178.471 141.158 173.861 144.655C175.44 142.611 176.834 140.429 178.026 138.137C178.341 137.52 180.316 133.739 179.834 133.424C179.446 133.17 177.823 135.438 175.515 137.594C172.98 139.923 170.036 141.764 166.833 143.024C168.58 141.461 170.912 139.274 173.528 136.506C176.484 133.38 176.805 132.682 176.613 132.182C175.959 130.483 170.079 131.07 165.939 132.361C163.261 133.201 159.151 134.474 157.979 137.798C157.313 139.651 157.825 141.338 158.343 143.049C162.995 158.494 162.897 159.334 164.513 160.619C167.895 163.356 172.424 162.979 177.718 162.25C191.823 160.31 199.931 159.161 213.722 153.557C213.722 153.557 227.877 147.763 245.19 135.079C248.973 132.312 254.113 128.284 255.865 121.488C256.519 118.883 256.642 116.173 256.229 113.519C257.764 115.528 258.761 117.897 259.123 120.401C259.74 125.343 257.469 130.125 248.812 139.781C237.669 152.211 232.103 158.419 223.483 161.7C220.33 162.898 211.877 166.024 201.406 164.239C199.442 163.907 197.506 163.422 195.618 162.787C192.996 164.177 181.328 169.354 165.587 166.957C165.982 168.99 166.531 172.066 167.031 175.829C168.617 187.752 168.265 196.16 168.302 202.641C168.354 212.595 169.2 222.53 170.832 232.35C171.023 228.39 171.307 222.286 171.554 214.774C171.887 204.945 171.881 201.325 172.282 195.005C172.553 190.68 173.059 184.385 174.09 176.712C174.559 179.375 175.207 183.39 175.719 188.308C176.027 191.273 176.268 194.331 176.805 206.965C177.286 218.345 177.286 220.384 178.039 224.35C178.781 228.127 179.872 231.827 181.297 235.402C183.224 230.42 184.67 225.265 185.616 220.007C186.276 216.38 186.467 213.996 187.245 205.513C187.609 201.609 188.158 195.684 188.874 188.308C189.343 190.649 189.997 194.307 190.503 198.81C191.539 207.985 190.947 211.685 191.768 217.653C192.62 223.591 194.455 229.345 197.198 234.679C198.53 227.569 199.318 220.367 199.555 213.137C199.666 209.529 199.555 207.342 199.734 201.906C199.931 194.745 200.351 188.932 200.641 185.058C201.455 189.131 202.059 193.242 202.449 197.377C202.967 202.826 203.189 208.992 203.356 213.86C203.646 222.311 203.535 224.683 205.164 227.989C206.537 230.699 208.518 233.054 210.951 234.871C217.56 234.624 220.336 232.35 221.626 230.707C224.181 227.451 222.613 224.492 222.354 211.506C222.187 203.246 222.767 201.621 221.99 195.382C221.034 187.746 219.429 184.583 218.905 183.607C217.199 180.708 215.022 178.114 212.463 175.934C212.893 173.918 213.871 172.06 215.289 170.565C218.337 167.476 221.848 168.094 226.871 165.493C227.951 164.931 229.462 164.035 233.745 160.057C240.408 153.879 243.16 150.085 250.929 141.22C259.456 131.502 261.351 130.1 261.968 126.004C262.177 124.657 263.029 118.949 260.166 113.871Z" fill="#292929"/>
<path d="M164.674 121.76C164.569 119.987 164.273 116.879 162.662 110.769C162.428 109.892 162.169 108.916 161.879 107.94C160.028 108.169 158.176 108.409 156.325 108.675H156.239C152.154 109.256 148.08 109.907 144.016 110.627C121.768 114.561 99.9499 120.629 78.863 128.747L85.0333 144.754C108.224 135.812 132.339 129.49 156.93 125.905L157.701 125.794C159.589 125.528 161.478 125.263 163.372 125.022L164.76 124.861C164.748 123.885 164.748 122.853 164.674 121.76Z" fill="#292929"/>
<path d="M161.879 107.94C162.169 108.941 162.428 109.892 162.662 110.769C164.273 116.879 164.569 119.987 164.674 121.76C164.742 122.853 164.766 123.885 164.76 124.849L163.372 125.009C161.478 125.25 159.589 125.516 157.701 125.782L156.93 125.893C132.337 129.475 108.22 135.795 85.0272 144.735L78.8568 128.729C99.9508 120.601 121.777 114.525 144.034 110.584C148.098 109.867 152.173 109.217 156.257 108.632H156.344C158.195 108.366 160.046 108.125 161.897 107.897L161.879 107.94ZM164.347 104.171L161.453 104.536C159.429 104.789 157.603 105.03 155.863 105.277H155.776C153.049 105.667 150.266 106.093 147.465 106.556L143.442 107.242C120.978 111.215 98.9478 117.339 77.6536 125.528L74.4574 126.764L75.6915 129.964L81.8618 145.971L83.0959 149.171L86.2921 147.936C109.251 139.099 133.121 132.848 157.461 129.297L157.831 129.247L158.226 129.192C159.991 128.939 161.897 128.673 163.835 128.426L164.686 128.327L165.192 128.271L168.203 127.919V124.886C168.203 123.724 168.203 122.631 168.111 121.55C167.981 119.363 167.617 116.058 165.994 109.898C165.754 108.99 165.482 108.045 165.186 106.982L164.365 104.171H164.347Z" fill="#F7CB15"/>
<path d="M84.7372 79.8676L64.3319 25.805C73.8836 22.193 83.5319 18.9578 93.2769 16.0995L96.1831 26.0398C91.7405 27.3371 87.3143 28.721 82.9046 30.1913L87.4213 43.8197C91.2551 42.5388 95.1115 41.3177 98.9906 40.1562C99.9696 43.4511 100.949 46.7583 101.928 50.0779C98.172 51.1982 94.4246 52.3781 90.6854 53.6178C93.0671 60.8089 95.4509 67.9999 97.8368 75.191C93.4435 76.6654 89.077 78.2243 84.7372 79.8676Z" fill="#F7CB15"/>
<path d="M129.423 66.3751C124.943 67.3965 120.48 68.5127 116.033 69.7235C110.998 51.1281 105.961 32.5348 100.922 13.9434C106.117 12.5308 111.335 11.2252 116.576 10.0267L129.423 66.3751Z" fill="#F7CB15"/>
<path d="M143.651 63.4406C140.797 47.8847 137.938 32.3309 135.075 16.7791C131.603 17.4216 128.137 18.1094 124.678 18.8425L122.53 8.71694C134.871 6.0934 147.288 4.06294 159.781 2.62555L160.965 12.9055C157.477 13.3174 153.997 13.7663 150.525 14.2523C152.755 29.903 154.984 45.5536 157.214 61.2042C152.685 61.8591 148.164 62.6046 143.651 63.4406Z" fill="#F7CB15"/>
<path d="M171.276 59.5115L165.501 2.00781C172.987 1.25411 180.486 0.712513 187.998 0.383026C192.79 15.4118 197.109 30.5229 200.955 45.7163C200.503 30.4775 200.009 15.2532 199.474 0.0432421C204.296 -0.0267739 209.125 -0.0102995 213.962 0.0926652C213.551 19.3512 213.14 38.6118 212.728 57.8744C206.328 57.7385 199.927 57.7817 193.526 58.0041C189.38 42.4935 184.742 27.0715 179.612 11.738C180.994 27.3268 182.335 42.9177 183.635 58.5107C179.513 58.762 175.394 59.0956 171.276 59.5115Z" fill="#F7CB15"/>
<path d="M221.361 58.1647C222.253 38.9227 223.15 19.6786 224.051 0.432434C234.121 0.901953 244.176 1.7545 254.218 2.99008C253.806 6.41262 253.395 9.83723 252.984 13.2639C248.397 12.6996 243.802 12.2178 239.199 11.8183C238.829 16.0563 238.461 20.2943 238.095 24.5324C242.274 24.8948 246.443 25.3293 250.602 25.8359C250.191 29.1308 249.794 32.4256 249.411 35.7205C245.355 35.2304 241.295 34.8185 237.231 34.4849L235.997 48.7929C240.55 49.2048 245.1 49.6907 249.645 50.2509L248.35 60.5185C239.357 59.3735 230.361 58.589 221.361 58.1647Z" fill="#F7CB15"/>
<path d="M269.779 44.2769L268.78 49.7937C268.514 51.2764 268.632 52.3761 269.138 53.1051C269.643 53.834 270.631 54.3406 272.099 54.6125C273.71 54.9275 274.845 54.8534 275.53 54.3839C276.215 53.9144 276.721 52.8641 277.054 51.2393C277.332 49.9049 277.603 48.5705 277.881 47.2361C278.098 46.3342 278.2 45.4083 278.183 44.4807C278.142 43.8723 277.969 43.28 277.677 42.7448C276.943 41.5092 274.938 40.1995 271.618 38.8774C270.112 38.2596 268.94 37.8024 268.107 37.4194C264.244 35.6773 261.671 33.7868 260.419 31.6678C259.166 29.5488 258.802 26.466 259.382 22.401L260.141 17.1251C260.869 11.9913 262.541 8.56871 265.213 6.90068C267.885 5.23265 272.161 4.86198 277.992 5.93693C279.553 6.22111 281.108 6.55472 282.663 6.82654C285.693 7.36489 288.651 8.25645 291.474 9.48303C293.408 10.2922 295.106 11.5779 296.41 13.2207C297.253 14.3494 297.739 15.705 297.805 17.1127C297.891 18.5748 297.57 20.8071 296.842 23.8095C296.491 25.2552 296.133 26.707 295.781 28.1341C291.334 27.0879 286.879 26.0974 282.416 25.1625C282.655 23.9846 282.897 22.8025 283.144 21.6164C283.51 19.8372 283.479 18.6016 283.052 17.9097C282.62 17.2177 281.558 16.6741 279.862 16.3652C278.165 16.0563 277.066 16.1119 276.388 16.5567C275.709 17.0015 275.228 17.9714 274.95 19.4788L274.284 23.1485C273.771 25.9409 276.135 28.3997 281.194 30.6793C282.638 31.3466 283.774 31.9149 284.607 32.3165C288.469 34.2131 290.919 36.2889 292.011 38.4944C293.103 40.6999 293.109 43.727 292.141 47.6562C291.519 50.1767 290.902 52.6953 290.289 55.2117C289.136 59.9007 287.136 62.9835 284.341 64.5094C281.546 66.0354 277.597 66.2145 272.414 65.1705C271.217 64.9275 270.022 64.6948 268.829 64.4724C263.109 63.3912 259.327 61.822 257.445 59.5301C255.563 57.2381 254.977 53.5684 255.705 48.3728C256.005 46.3135 256.303 44.2336 256.599 42.1331C260.993 42.7715 265.386 43.4861 269.779 44.2769Z" fill="#F7CB15"/>
<path d="M311.509 54.4519L309.861 59.8081C309.425 61.2496 309.415 62.3596 309.831 63.138C310.246 63.9164 311.176 64.5342 312.62 64.9913C314.187 65.4979 315.335 65.5659 316.075 65.1829C316.815 64.7998 317.445 63.8176 317.969 62.2422L319.259 58.3687C319.577 57.496 319.784 56.587 319.876 55.6627C319.904 55.0542 319.799 54.4469 319.567 53.8835C318.95 52.5676 317.099 51.0232 313.965 49.3057C312.527 48.5335 311.41 47.9095 310.627 47.4523C306.974 45.253 304.629 43.0599 303.617 40.8049C302.605 38.55 302.624 35.4487 303.679 31.4887L305.049 26.3363C306.388 21.3261 308.461 18.1259 311.324 16.7915C314.187 15.4571 318.5 15.6054 324.207 17.3784C325.729 17.8562 327.249 18.3401 328.767 18.8302C331.738 19.7305 334.593 20.9745 337.276 22.5369C339.106 23.5795 340.645 25.0667 341.75 26.8615C342.465 28.0779 342.8 29.4807 342.712 30.8894C342.626 32.3557 342.042 34.5344 340.96 37.4256C340.438 38.8342 339.907 40.2283 339.368 41.6081C335.069 39.9895 330.75 38.4532 326.41 36.9994L327.558 33.5645C328.132 31.8408 328.249 30.6114 327.903 29.8577C327.558 29.104 326.552 28.4677 324.892 27.9364C323.233 27.4051 322.128 27.3495 321.394 27.7017C320.66 28.0538 320.073 28.9372 319.623 30.4323C319.253 31.6184 318.885 32.8087 318.518 34.0031C317.685 36.709 319.752 39.4334 324.541 42.3185C325.91 43.1422 326.986 43.8218 327.768 44.3572C331.408 46.711 333.617 49.0771 334.432 51.3691C335.246 53.6611 334.919 56.7068 333.488 60.4938C332.574 62.9197 331.659 65.3455 330.742 67.7714C329.033 72.2874 326.663 75.1045 323.695 76.2783C320.727 77.4521 316.748 77.1494 311.682 75.4814C310.518 75.0984 309.349 74.7215 308.177 74.3508C302.587 72.5901 298.996 70.57 297.379 68.0988C295.762 65.6277 295.614 61.8777 296.959 56.8118C297.502 54.7855 298.043 52.755 298.582 50.7204C302.905 51.886 307.214 53.1298 311.509 54.4519Z" fill="#F7CB15"/>
</svg>
