<svg xmlns="http://www.w3.org/2000/svg" viewBox="0 0 997.02 277.16"><defs><style>.cls-1{fill:#fff;}</style></defs><g id="Capa_2" data-name="Capa 2"><g id="Capa_1-2" data-name="Capa 1"><path class="cls-1" d="M24.88,244.53,11.26,220.76c3-1.72,5.72-3.55,8.68-4.92,2.23-1,2.17-2.49,1.27-4.08-3.58-6.27-7.35-12.43-10.93-18.7S3.37,180.64,0,174.58c4.4-2.55,8.79-5.1,13.54-7.84,2.7,4.33,5.51,8.59,8.06,13,4.69,8.12,9.17,16.37,13.91,24.47.39.66,2.28,1,3.24.68,1.76-.54.93-1.76.28-2.89q-10.33-17.88-20.58-35.79c-.32-.56-.55-1.17-.88-1.87L31,156.43c5.3,9,10.47,17.82,15.61,26.63,2.14,3.65,4.09,7.41,6.4,10.94.46.7,2.23,1,3.27.75,1.21-.24,2.28-1.21,3.71-2a32.75,32.75,0,0,1,1.88,3c.89,1.81,2,2.19,3.8,1.13,5.57-3.31,11.18-6.54,16.79-9.78q7.25-4.2,14.51-8.37a11.41,11.41,0,0,0,5.33-12c-2.27-10.65-4.75-21.26-6.7-32a118.07,118.07,0,0,1-1.3-16,5.45,5.45,0,0,0-3.1-5.15Q78.55,106.6,66.09,99.18c-2.26-1.35-3.5-1.25-4.41,1.33-.72,2.08-1.9,2.61-4,1.25-2.82-1.82-4.26-1.25-5.93,1.66q-9.65,16.86-19.31,33.71c-.32.56-.55,1.16-1,2.16l-14-8c2.5-4.33,4.9-8.56,7.37-12.76,4.12-7,8.35-13.91,12.39-21a47.28,47.28,0,0,0,2.51-6.2c-3.08-1.2-4.34,0-5.44,1.93Q24.7,110.12,15,126.83c-.41.71-.91,1.36-1.48,2.21L0,121.23c2.41-4.31,4.75-8.54,7.14-12.74q5.72-10,11.5-19.94c.84-1.46,1.86-2.83,2.57-4.34.9-1.88.94-3.3-1.58-4.38-2.95-1.27-5.57-3.3-8.41-5L25,51.38c2.46,1.44,4.91,2.8,7.28,4.27,4.11,2.55,4.62,2.4,6.88-1.67,3.35-6,6.8-12,10.23-18,3.3-5.73,6.63-11.45,10.17-17.58l13.54,8c-1.06,1.84-2,3.46-2.91,5.06Q61.51,46.27,52.86,61.1a12.52,12.52,0,0,0-1.48,3.33c-.16.71.13,2.1.53,2.24a5,5,0,0,0,2.86-.19,3,3,0,0,0,1.33-1.43c2.36-4.14,4.67-8.32,7-12.48q6.13-10.92,12.29-21.84c1-1.83,2.22-2.11,4.11-.87,3.46,2.25,7.1,4.24,11,6.52A34,34,0,0,1,89,39.69Q80.65,54.11,72.26,68.47c-.8,1.38-1.64,2.74-2.47,4.09-1.85,3-1.58,4,1.48,5.67.65.36,1.29.74,1.86,1.07,0,.32.14.55.08.68-2.46,5-2,5.88,2.82,8.49,6.28,3.36,12.43,7,18.64,10.45,2.86,1.6,3.27,1.44,4.66-1.47a57.13,57.13,0,0,1,12-16.92c2.78-2.65,2.74-3.82.7-7.36a111.67,111.67,0,0,1-11.39-26.49c-4.48-16.48,3.07-28.86,16-36.28,8.39-4.82,17.83-6.84,27.26-8.56,10.81-2,21.75-2,32.69-1.69,8.36.24,16.74.88,24.74,3.48,6.71,2.18,13.08,5.19,18.27,10.25A28.09,28.09,0,0,1,228,33.57c.51,12.6-3,24.28-8.79,35.34-2.17,4.15-1.8,5.52,1.81,8.69,4.23,3.72,8.36,7.56,12.35,11.54A25.59,25.59,0,0,1,237,94.46c1.4,2.41,2.31,2.63,4.63,1.24,5.24-3.14,10.48-6.3,15.86-9.18,2-1.07,2.23-2.22,1.09-3.76-1.54-2.08-1.24-3.41,1-4.73,2.82-1.64,3-2.77,1.28-5.78-4.16-7.16-8.43-14.25-12.6-21.4-2.78-4.77-5.46-9.6-8.31-14.61l13.88-7.81c2.45,4.21,5,8.49,7.45,12.79q7,12.12,13.86,24.29c.83,1.47,1.68,2.58,3.48,1.48s1-2.5.18-3.86q-9.6-16.31-19.16-32.64c-.76-1.3-1.39-2.67-2.15-4.12,4-2.39,8-4.73,11.88-7.11,1.32-.8,2.13-.64,2.93.79q7.4,13.17,14.93,26.25c1.82,3.18,3.7,6.34,5.7,9.41,1.31,2,3,1.26,4.67.3l8.08-4.72c4.66,8,9.19,15.75,13.64,23.38-3.37,2-6.3,3.9-9.31,5.61-1.63.93-1.71,1.94-.82,3.46q7.91,13.53,15.72,27.11c2,3.41,3.82,6.87,5.82,10.47l-13.86,7.9c-3.67-6.48-7.12-12.62-10.63-18.73-3.71-6.45-7.44-12.89-11.32-19.23-.35-.56-2.14-.75-2.92-.38-.52.25-.9,2-.54,2.7,2.73,5.12,5.6,10.18,8.54,15.19,4.37,7.45,8.84,14.85,13.33,22.39l-13.91,8.13c-5.36-9.28-10.6-18.37-15.84-27.46-1.59-2.76-3.18-5.54-4.74-8.33-1.83-3.28-2.91-3.6-6.35-1.84-.66.34-1.34.66-2,1-3.61-4.71-3.65-4.78-8.88-1.83-6,3.36-11.81,6.91-17.79,10.26-2,1.13-2.59,2.77-2.6,4.86,0,5,.31,10.06-.23,15-.75,6.93-.91,14.12-4,20.52a76.77,76.77,0,0,1-7.9,12.25c-2.42,3.28-2.48,3.94,1,5.63,2,1,3.53,2.22,3,4.78-.83,3.9,1.37,5.54,4.55,7.21,8,4.2,15.7,8.84,23.53,13.31,4.34,2.49,5.47,4.5,9.23-1.52,2,.69,4.25,2.22,5.95,1.78,1.46-.38,2.43-3,3.44-4.69q9-15.36,17.84-30.77c.56-1,1.18-1.88,1.86-3l13.66,8c-2.87,4.88-5.59,9.47-8.29,14.08q-5.26,9-10.51,18a35.09,35.09,0,0,0-2.77,4.86c-.34.9.21,2.14.36,3.23,1.18-.43,3-.51,3.46-1.36,7-11.73,13.77-23.57,20.62-35.38.22-.39.48-.78.87-1.4l13.69,7.78c-6.92,12.1-13.72,24-20.55,35.93-2,3.55-1.95,4.08,1.61,6.23,2.41,1.46,4.9,2.79,7.63,4.34L305.73,244.4c-3.1-1.84-6-3.48-8.76-5.21-2.07-1.27-3.23-1.22-4.53,1.34-2.92,5.77-6.33,11.31-9.58,16.92-3.39,5.85-6.86,11.65-10.2,17.52-1.08,1.92-2.11,2.22-4,1-2.76-1.76-5.72-3.24-8.63-4.77-2-1-2.38-2.22-1.16-4.28q9.9-16.7,19.55-33.54a5.37,5.37,0,0,0,.58-3.22,2.82,2.82,0,0,0-1.7-1.84c-.47-.15-1.53.61-1.88,1.22-6.78,11.73-13.49,23.5-20.23,35.26-.46.8-1,1.53-1.66,2.44l-13.33-7.93c.87-1.8,1.64-3.78,2.72-5.58,3.92-6.51,8-12.92,11.9-19.47,2.38-4,4.48-8.21,6.72-12.31,1-1.88.63-3.2-1.45-3.94-2.3-.82-3.49-1.85-1.6-4.43,1.51-2.06.42-4.14-2.33-5.66-7.8-4.33-15.53-8.79-23.42-13-1.66-.89-3.86-.71-5.78-1.18a9.68,9.68,0,0,1-3.16-1.32c-3.82-2.59-5.05-2.63-8.74.2-2,1.55-3.75,1-5.67-.65,1.5-.3,2.73-.59,4-.78,2.38-.37,3.3-2.25,1.55-3.82-4.59-4.13-9.18-8.36-15.76-9.16-5-.61-6.47,1.22-5.35,6.32.26,1.19-.72,2.61-.83,3.95a18.22,18.22,0,0,0,.29,3.82c.14,1.13.88,2.46.5,3.33-3.1,7.12-2.56,14.7-3,22.14a4.41,4.41,0,0,1-2.34,4.11c-2.08,1.17-4.13,2.42-6.79,4,.19-2.55.35-4.36.47-6.17.41-6.37.76-12.75,1.21-19.11.2-2.78-.63-3.58-4.54-3.65,0,1,0,2,0,3-.18,8.66-.35,17.33-.61,26a2.64,2.64,0,0,1-1,2c-2.52,1.18-5.15,2.13-8.36,3.41,0-5.14,0-9.81,0-14.47.07-5.95.16-11.9.32-17.85,0-1.79-.29-2.83-2.45-2.8s-2.19,1.14-2.18,2.73c0,10.86,0,21.72,0,32.62a69.25,69.25,0,0,1-6.58-4.1,4.57,4.57,0,0,1-1.25-3.24c-.1-8.22-.05-16.44-.05-24.66a4.25,4.25,0,0,1,.07-1.13c.38-1.38,1.44-2.92-.61-3.83-2.28-1-6.36-.43-7,1.2-.36.89.22,2.31.7,3.35.6,1.3,2.1,2.4,2.21,3.68.58,6.82.85,13.66,1.21,20.5a11.14,11.14,0,0,1-.17,1.48c-3.49-2-7.13-3.42-9.9-5.86-1.29-1.14-1.21-4.21-1.17-6.39a25.83,25.83,0,0,0-2.72-11.8c-2.28-4.94-3.77-10.45-2.2-16.22.27-1-.78-3-1.77-3.54a16.63,16.63,0,0,0-6.25-2.2,11.07,11.07,0,0,0-5.05,1,49.25,49.25,0,0,0-4.94,2.68c-3,1.58-3.47,3.27-2,6.22.41.79.76,2.44.48,2.6a5.45,5.45,0,0,1-3.42.94,13.1,13.1,0,0,1-4-1.94,4,4,0,0,0-4.63,0c-9.92,5.88-19.92,11.6-29.95,17.29-4.74,2.68-4.88,2.88-2.39,7.73a2.15,2.15,0,0,1,.1.8c-.07.11-.1.21-.17.25-5.44,3.34-5.38,3.46-2.16,8.88,6.26,10.49,12.4,21.05,18.57,31.6.37.64.61,1.35,1.06,2.35L77,267.26c-6-10.32-11.86-20.49-17.74-30.66-1.36-2.36-2.65-4.76-4.11-7-.41-.65-1.55-1.49-2-1.32a3.26,3.26,0,0,0-1.84,2.06,4.72,4.72,0,0,0,.8,2.85Q62,250.21,72,267.22c.67,1.16,1.21,2.21-.32,3.08l-12.24,6.86c-1.93-3.17-3.81-6.17-5.59-9.22-4.25-7.28-8.45-14.6-12.67-21.9l-3.76-6.47c-1.14-2-2.37-1.44-3.92-.38C30.85,241,28.08,242.56,24.88,244.53ZM202.59,61.11c.62-1.77.89-2.87,1.37-3.87a55.13,55.13,0,0,0,5.73-18.38c.8-7.51-.14-11.84-7.49-15.27-7.51-3.5-15.64-4.81-23.76-5.19s-16.55.24-24.82.53a36.07,36.07,0,0,0-7.56.88c-6.41,1.62-12.82,3.34-19.12,5.35-6.62,2.12-9.68,8.49-8.63,15.2,1.2,7.76,4.5,14.6,8,21.44,1.78,3.51,2.68,3.76,6.34,2,8-3.83,16-7,25-7.66,11.61-.8,23.08-.41,34.43,2.18C195.6,59.11,199.05,60.16,202.59,61.11ZM140.93,161.72l.19-.63a72.59,72.59,0,0,0,8.62-1.15,84.94,84.94,0,0,0,10.84-3.59c.82-.33,1.5-1.81,1.61-2.83.07-.6-1-1.51-1.78-2a29.33,29.33,0,0,0-3.81-1.76c-7.49-3.19-14.86-6.62-21.41-11.54-7.89-5.94-16-11.37-25.89-13.48-4.72-1-7.38-.6-7,5.24.41,5.4,2,10.73,3.17,16.06a13,13,0,0,0,10,10.3C123.94,158.42,132.46,160,140.93,161.72ZM233,131l-.53-.13c0-.66,0-1.32-.1-2-.57-5.61-2.34-6.76-7.49-4.34-5.92,2.79-11.81,5.71-17.49,8.95-6.57,3.75-12.78,8.16-19.39,11.83-4.22,2.34-8.92,3.78-13.33,5.8a3.87,3.87,0,0,0-2.06,2.49,3.11,3.11,0,0,0,1.76,2.4c4.72,1.64,9.44,3.52,14.33,4.42,9.26,1.72,18.23-1.09,27.16-3,5.8-1.22,11.23-4,13.25-10.19C230.85,142,231.75,136.47,233,131Zm-65.78,26.6c-1.94.85-3.36,1-3.92,1.81a68.5,68.5,0,0,0-4.38,7.28c-.48.86-.32,2.38-1,2.78-4,2.47-3.32,6.06-2.32,9.51a16.52,16.52,0,0,0,3,5,14.49,14.49,0,0,0,2.76,2.15c.68-5.06,1.67-9,4.7-12.1a3.65,3.65,0,0,0,1-2.22C167.28,167.37,167.23,162.92,167.23,157.64ZM168,157c0,4.42-.11,8.47.06,12.51a14.06,14.06,0,0,0,1.2,4.83c1.43,3.28,3.08,6.46,4.83,10.07a4.09,4.09,0,0,0,1.81-.21c2.6-1.26,4.89-9.27,3.52-12-1.61-3.24-3-6.6-4.91-9.68C173.05,160.1,171.46,157.59,168,157Z"/><path class="cls-1" d="M415.13,37.27l.35.34h3.83l.68.68V77.71l-.34,1.37.34,1h-.34l.34.34V91.94l-.34.41.34.35v42.49l-.68.69h-2.12v-1h-.69c0,.68-.23,1-.68,1H404.66v-1H404v1h-5.61l-.69-.69V38.29l.69-.68h16.42Zm-14.3,89.23v.69h1v-.69Zm.34,5.2v1l.69-.69v-.34Zm1.37-.34H404l-.75-.69Zm4.52-2.46v.34c1.64-.23,2.46-.57,2.46-1v-.34h-1.37Zm1.09,3.14.35,1h.34v-1Zm3.15-41.12c0,.86-.71,1.46-2.12,1.78V93H411l.68-1.78v-.34Zm-1.43,30.65v.35L411,123h.34v-1.44ZM412.33,132l-.69.69v1.09l1-1.43V132Zm-.34-9v.69h1l-.68-.69Zm1-28.6v.68h1.37l.41-1.37h-.41Zm.34,37-.34.34V132h1Zm2.47-19.5c0,.68-.71,1-2.12,1v.69l2.8-1v-.68Zm-.34-32.78.68.68h.34v-.68Zm1.36,30.66-.34,1.43h.69l.34-1.43ZM418.21,77a1.2,1.2,0,0,1-1.37,1.36v.35h.35c1.05-.46,1.64-.92,1.78-1.37V77Zm-1,13.89v.68h1.43v-.68Zm.68-23.68v.68H419v-.68Zm6.3-29.63H443q20.94,1.1,20.93,6h1.72q9.78,7,9.78,21.22,0,15.66-11.91,22l-.68-.68q0,1.71-4.17,2.46v.34q6,0,11.15,10.75l-.34.41H468.1l-.34-.41h-.41L467,101h.35l2.12-.34q1.36,0,2.12,7.67h-.75l-1.71-.35-1.37,1.72c.64,0,1.21.47,1.71,1.43v.69l-.34.34v.34h2.46v-.68h.68l2.06,10.81c-1.37.46-2.06.91-2.06,1.37v.34H474q1,0,2.13,4.86l-1.1,1.09v1l1.1-.69h.34q.82.35,2.8,3.84l-1.43,1.37h-5.55l.69-2.81v-1c-.69,0-1.14,1.28-1.37,3.84h-5.95l-.69-.69.34-.34H466l1.78.34v-1l-.41-1.44,1.09-1.37,1.71.34,1.44-.34v-1.78c-3.51.78-5.27,1.48-5.27,2.12l.34,2.12-.34.35h-3.15c0,1.14-.23,1.71-.68,1.71H457q-1.17,0-4.18-8.35l.34-1q-1,0-3.83-18.48a11.71,11.71,0,0,0-5.61-7,35.1,35.1,0,0,0-11.15-1.43v-1h.68V97.9h-.68c0,.45-.46.68-1.37.68v1l-6,.41h-1l-.69-.75V92.7c0-.5.57-.76,1.71-.76v-.68h-.34l-1,.34-.34-.34V82.57l.69-.69h8.69q20.59,0,20.59-12.18V66.9q-1.23-10.13-9.78-10.13,0-.62-8.69-.68H424.17l-.69-.69V38.29Zm4.17,54v.34l2.12,1.1h3.08v-.69h-3.08c-.5,0-.75-.36-.75-1.09Zm.69-8.35v.69l.68.75-.34.34v1h1.43l-.34-.34v-.35l1-1.43-2.12-.69Zm3.49-.68-.35,1.37h1V82.57ZM434,93l.69.68h2.05v-.34L436,92.7Zm3.83-3.15.35,1h.68l.69-.69v-.34l-1.72-.34Zm8-8,.68,1-.34.34h-.34l-.34-.34a9.28,9.28,0,0,0-4.59,1.78h-1l.34.34v.34l-.68,2.06h1a2.76,2.76,0,0,0,2.12-2.74l1-.75h1.44c.68,0,1,.48,1,1.43h.69l1-1.78c-.45,0-.68-.45-.68-1.36l-.34-.35Zm2.4,14.65,1.09,5.2H450v-1l-.69-2.8.69-1v-.34Zm3.14-8.42-.68,1.44,3.49,1.37v-.69c-.46,0-.69-.45-.69-1.37L452,88.11Zm0-9.72,1.44,1.37h1.37l.68-.68H452v-.69Zm1,39c.27,1.41.64,2.12,1.09,2.12l.69-.68v-.41l-1-1Zm.75-13.21-.34,1.37v.34h.34l.34-1.36v-.35Zm1.37-10.47-.34.34v.69l1.37-.69v-.34Zm-.34,16.7,1.37,2.12h.68v-.68q-1,0-1-1.44Zm.34,14a4,4,0,0,1,2.81,2.12l3.14,1v-1A4.33,4.33,0,0,1,456.6,124l-.41-.34h-1Zm.69-4.86.68.69h.75v-.69Zm0,9,.68.69h.34l-.68-.69Zm.34-46v2.8h.68v-2.8Zm.68,33.12V116H457v-1ZM458,74.22l-.34,1,.34,1h.34l.35-2Zm1,30.32v.34h.34l1.09-1v-.75Zm0,28.87v.76h.34l1.78-.35v-1.09h-.69Zm1-25.73h.41l.69-.75h-.34Zm1.78,6.57-1-.68-.76.68v.34h2.47l.34.41c1.41-.5,2.12-1,2.12-1.43l-.34-.34h-.34A4.08,4.08,0,0,1,461.8,114.25ZM460,118.08l.41,1.44h.35l1.37-.68v-.76Zm1.1-5.88v.34l.68.69h.69l.68-.69Zm2.39,15c0,.91-.22,1.36-.68,1.36l.34.35v.34l-.68,1.09v.34h1.43v-3.48Zm-.34-68.3h.34l.76-.68h-.35Zm.75,48.79v.69l1.72-.35v-.34Zm.69,13.89c0,.46.8,1.17,2.39,2.13h.76v-.35c0-.36-.82-1-2.47-1.78Zm.34-10.4h.69l1.36-.75v-.68h-.34C465.61,110.19,465,110.67,465,111.17Zm1.71-8.76-.68,1.1,1.37,1,.41-.35h.34l2,1.37v-2.8h-1l-1.78.34ZM466,118.08v.76h1.37v-.76Zm.34-19.5v.34l1,.35v-.69Zm1,6.64v2.12c.5,0,.75-.36.75-1.09l-.34-1Zm1.43,19.84.69.69.68-.69Zm3.84,2.13v.68H474v-.68Z"/><path class="cls-1" d="M494.88,37.88h11.84l.69.69v9.37h-.69c0-1.37-.23-2-.68-2l-.69.68v.69c0,.46.69.93,2.06,1.44V59.44L505,59.1h-.34v.34l2.74,1.09v4.18h-1v.68c.68,0,1,.23,1,.69V82.77c-.92,0-1.37.82-1.37,2.47l.34.34-1,.68h-1c-.46,0-.69-.59-.69-1.78h-.41c0,1.19-.34,1.78-1,1.78H500.5l-.69-.68V84.14c.69,0,1-.23,1-.68l-.34-1.71-.35.34h-.34l.34.34v1l-.75.68h-1c-1.14-.41-1.71-1.43-1.71-3.08v-.41l1-.34-.69-2c.92,0,1.37-.6,1.37-1.78h2.81V75.11h2.05l.41-.34H504c0-.69-.47-1-1.43-1l-.34-2.12-.35.34h-.34l.34.34v.76l-1,1-1.44.35v1l-.34-.34h-.69l-.68,2.12-1.37-.75v.75h-3.49V75.79l.34-1.71c-.68,0-1-.22-1-.68V72l1-.34c.41,1.64,1.35,2.46,2.81,2.46v-.34a2.9,2.9,0,0,1-1.78-2.46l.68-.69.35.35H497V68.88c0-.5.35-.75,1-.75v-.68a1.82,1.82,0,0,1-2-2.06l-.34.34h-.41l-3.08-.68-.35.34v-.68c.69,0,1-.25,1-.75v-1h-.68v.68l-1.78-.34h-.69v.34h.69v.69l-1.37.41V62.93h1V61.56l-.35-.34v-.34a2.16,2.16,0,0,0,1.37-2.12h1.1l1,1-.68.75.68,2.06h.69V61.22h.34l.68.68-.34.34v.35h.69l2.12-.69v-.68c-1.33,0-2.83-.82-4.52-2.46V56h-.68c0,.55-.48,1.25-1.44,2.12l-.34-.34h-1.71l.68,2.39c0,.73-.93,1.67-2.8,2.81v.34h-1.37V60.53l.68-2.46h-.68V56.7h.68v1c1.73,0,2.67-.46,2.81-1.37V56h-.35v.75c-1.87-.23-2.8-1.05-2.8-2.46l1.37-1H489l-.34,1.71v.69H489c0-.91.27-1.37.68-1.37L489,51.09l.68-.68v-.35c-.68,0-1-.22-1-.68l-.35.34H488l-1.09-1v-.35c1.18,0,1.78-.48,1.78-1.43l-.35-.35.35-.34.34.34h1l1.77-.34.35,2.12h.34a3.23,3.23,0,0,1,2.05-1.09v-.69l-1.37-.34,1-3.15c-.59,0-1.05-.68-1.37-2l.69-1,1.71.68.41-.34-.76-2.12Zm-4.51,0v1h.34c0-.55.48-.89,1.44-1l.68,1v.68c-.68,0-1,.37-1,1.1l-1.43.68L489,41c-.46,1-.91,1.62-1.37,1.71l-.34-.34h-.41l-1,1.37,2.12.41v2.39c-1,0-1.43.35-1.43,1h-1.37V43.77l.34-3.08-.34-2.46.34-.35Zm-5.2,26.42h.68l.34,1.78-.34,2.39-.68-.68Zm3.49,1.09c.5,0,1.18,1.17,2,3.49h.34l.41-1.78c-.73,0-1.09-.22-1.09-.68l1.78-.34,1.71,1h.34v1l-.68.75H491.8a2.82,2.82,0,0,1-1.09,2.4h.34l-.34.34V72l.75,2.12-1.09.69-1-1H489l-.69.69a2.82,2.82,0,0,0,2.4,3.14v.35l.34-.35h.41l.69.69v2.39c-1.19,0-1.78.25-1.78.76v.34a2.43,2.43,0,0,0,2.46,1.37c0-1.37.23-2.06.69-2.06v.35l1-.35v-.41c0-.45-.34-.68-1-.68l-.35-.34v-1l.69-1c1.87,0,2.8.8,2.8,2.4-.45,0-.68.59-.68,1.78h-.75v1q4.57,3.23,4.58,3.84c0,.45.57.68,1.71.68l.34.34v1.78l-.34,1.71h.34l1.78-.68.34.34V90.1c0-.46-.47-.69-1.43-.69,0-.5.59-.75,1.78-.75v-.34l2.05.75v-.41l.34-1.37h.69v8l-.35,2.46.35,3.08v23a4.59,4.59,0,0,1-1.37,2.81v.68l.34-.34h1v.34l-.35.34.35,1.71v4.52L505.35,136h-1.71l-1.09-.68.34-.34v-1.1l-2.05.75v.69h-2.12v-1.44l1.43-.68h.35v-.34l-.69-.69h-.41c0,.59-.68,1.3-2,2.12l-2.12-.41c.27-1.59.63-2.39,1.09-2.39H498c0-.69.59-1,1.78-1l1.37-2.12V128h-1.37V126h1.37l2.05,1.71H504v-.34c-1.18,0-1.77-.7-1.77-2.12v-.34a2.28,2.28,0,0,0,2.12-1.71h.34v.68h.68v-1l-.68-2.81H504l-1.09,2.12.75.69-3.83,2.73-1.09-.34v.34c0,1-.92,1.76-2.74,2.12a2.67,2.67,0,0,0-2.12-1.71v-1.09l.68-.69h.34l1.78.35-.34-.35v-.34l.68-2h-1.77l.41.34v.69h-1.1l-.68-1.44V121h-.34q0,2.46-.69,2.46h-.68l-1.1-.34v.34l-.68,2.05-.34-.34h-.35L489,126c1.64,0,2.46.46,2.46,1.37l.34,1.71-2.8.34.34.35v2.46c1.41,0,2.12.23,2.12.69V135h-2.12c-.41,0-.75-.71-1-2.12q-2.46,0-2.46-.69v-2.46h.69v-.35c-.92,0-1.37-.22-1.37-.68v-6.23l2.46-2.12h-2.46V120l.68-1v-1l-.68-1.1V96.32c0-.45.34-.68,1-.68V95.3q-1,0-1-.69V87l.68-.69h.34l.35.35h.34v-.35l-1.71-1.78V70.94h.68l.69.68h-.35l.35,1.09h.75V70.94c0-.46.68-.69,2-.69v-.34l-2.46-.69v-.75l.41-.34v-.34l-.41-.34A3.36,3.36,0,0,0,488.66,65.39Zm-2.81,69.25.34.35v.34l-.68.68-.34-.34v-.34Zm1-24.7v.68h.75l-.34.35v.34l.34,1h-.34l-1.1.34V113h1.1q1.23-2.4,4.51-2.4v-.68l-3.14.68-.69-.68Zm0-34.15-.34,1.1.34.34h.41l.68-1.09-.34-.35ZM490,89.07h1v.34l-1.71.34v.69H490v1.37l.34,1.78-2.06.68v-.34l-1.77.34v.34l.34.34v.35l3.49-.69v.69h.68V92.83h1.78l-.34-1.37.34-1h2.4l1.09,1-.34.35v.68l.68.75V92.15h.69l1.37,1.44v.34l-.35.34.35.34V95l-.35,1.72h.69l.34-2.74.41.34h.69v-.34c-.46,0-.69-.59-.69-1.78-1.19-.14-1.78-.48-1.78-1l1.37-2.8h-1v.75h-1l-.35-.41h-.34L497,87v-.34h-.68l-.34,2-.34-.34h-.41l-.35,1.09h-2.39v1.37h-1.44V90.1h.75v-.35l-.34-1.09h.34c.55,0,1-.8,1.37-2.4H491.8Zm-2.4,37.57c0,.68-.37,1-1.09,1l.75.69-.41.34v.68h1.78V129a3.46,3.46,0,0,1-.69-2.39Zm-.34-29.22v.68l1,.34.35-.34V96.32h-.35ZM488,80.65l-.34.41v1l1-1-.35-.41Zm0,25.12-.34.34v.34H488v-.34l.34.34H489v-.34Zm.34,14.23v.34l.69.69h.34v-.69L489,120Zm.35-18.41v.69l1,1,1.78-.68v-.34l-.75-.69-1.71.34Zm0,14.24v1.36l1.71-2-.34-.34Zm.68-9.38v.34l1,1v-.34Zm0,12.52.69.69,1-.34V119Zm0,3.15v.34l.69.69.68-.69Zm1.71-72.06v.69h.41l1.71-.34v-1Zm2.12,43.53c0,1.14-.23,1.71-.68,1.71l-1-.35a3.77,3.77,0,0,1,.69,2.47h.68c.41,0,.75-.59,1-1.78l-.34-.34,1.36-.69v.69h.35V93.93Zm-.68,14.57v.34h1.37v-.68h-.34Zm1.37,20.19v1.78l-.69.68-.68-2.12.34-.34Zm-.34-77.94v1h.68v-1Zm2.8,2.8v1H497v-1Zm.34-3.83v.34h.69l.34-1h-.34Zm.34,2.39v.35h.69l.68-.69-.34-.34h-.34Zm.35-8h.34l1-1h-.35Zm0,58.51V103h1.37l1.09-1v-.34h-.41Zm2.8-57.76v1.71h-.34l-.75-.68.34-.34h-1v2h-.68v.68h.68c0-.82,1.05-1.27,3.15-1.37.55-.91,1.12-1.36,1.71-1.36v-.69Zm2.4,24.36c0,1.19-.34,1.87-1,2.06l-1.37-.35-2.46.35v1l4.86-1,.68-.69v-.68ZM502.21,57h-2.06l-.75-.68-1,.34v1.37l1.78.34.35-.34,3.48,1v-.34c0-.46-.36-.69-1.09-.69v-.34l1.44-1.37h2.05l.34-1.1-.34-.34h-.68Zm-2.4-16.69-.75,1.37h.75l.69-.69ZM499.4,61.9l-.34.34v.35l1.09,1,.35-.34h.68q1.71,0,1.71,1.44H504V64.3A10,10,0,0,0,499.4,61.9Zm0,44.55v.69l2.12.34v.34a4,4,0,0,1-1,2.46v.34h.68c.45,0,.68-.47.68-1.43l2.12-.34v-1.71Zm.41-7v1h.34l1-.34v-.69Zm.69-34.76v.68c.45,0,.68.46.68,1.37h.68l-1-1.71v-.34Zm1.36-14.65.35,1.71h-.69v1.1h.34L505,51.43h.34v-.34l-1.71-.34h-1.09v-.69Zm-.34,27.86v.34l.34,1h1.37V78.6l-1.37-.68Zm.34-10.82v1h.69l-.34-1ZM502.21,96v.34l.68.69V96Zm.68,8-.34,1.43h.68V104Zm1.44,12.52a1.57,1.57,0,0,1-1.78,1.78v.34l2.8.34v-2.12Zm-1.1-16v.34l.41,2.46h1a1.51,1.51,0,0,1,1.71-1.71,2.88,2.88,0,0,0-2.05-2.12Zm.75-6.57V95.3c.32,0,.67-.46,1-1.37Zm.35-52.9c.45,1.83.91,2.74,1.37,2.74l1-1c-.45,0-.68-.57-.68-1.71l-.34-.34h-.35Zm0,23.68h1.37L505,64Zm0,67.13v.34h.34c1.37-.23,2.05-.57,2.05-1v-.34h-1.37Zm.34-54.61.68.69H506v-.35l-.34-1.09h-.35Zm.68,32.71-.34.34v1c.69,0,1,.46,1,1.37h1a4.5,4.5,0,0,1-1.36-2.4h.68v-.34ZM512,37.88h8.35l.68.69-.68.68v1.1h.34c.69,0,1-.82,1-2.47h5.88l.35.35.41-.35h4.51c.14,1.14.48,1.71,1,1.71l.34-.34h.34l-.34-.34v-1h8.69v1l.34-.34.35.34h.68v-.34l-.34-.34v-.35h12.52l.75.69V55.26l-.75.69h-9v-1c-.46,0-.69.34-.69,1H526.91l-1-.69-1,.69H512l-.75-.69V52.53l.34-.41-.34-.35V41H512V40h-.75V38.57Zm-.41,37.23q2.19,0,3.15,3.15l-.34.34h.68l.34-.34.35.34h.41l1-1-1.78-1.78v-.68h.35l.41.34h.34l.34-.34,1.71.34h2.81l1.71-.34v.34l.34-.34h1.09l1,.34,1.71-.34h6l2.74.68.75-.68H537l.34.34.34-.34h13.89l.69.68v.35H552l-1.71-.35-.34.35v.34l2.81.75.34-1.09h.68v6.29a6.08,6.08,0,0,1-3.83-1.78h-2.12V80h-2c0-.91-.48-1.37-1.44-1.37v.34c.55,2.1,1.14,3.15,1.78,3.15a.91.91,0,0,1,1,1l.34.34h.34c0-.91.37-1.37,1.1-1.37l1-.68L552,82.77h.76l.34-.34h.34l.34,2.4v4.58l-.34.34.34.35v.34l-.34,2.39-2.46-.34-.69.75h-.68v-.41l-2.46.41h-4.18l-.34-.41-.34.41h-2.47l-.34-.41-.34.41H537l-1.44-.41-1.37.41h-2.46l-.69-.75-2.73.75h-9.1c-.46,0-.92-.7-1.37-2.12h-.35l-.68,1-1.09-.34v.34c0,.73-.58,1.09-1.72,1.09h-2v-.75h1.71v-.34l-.34-.34.34-1H514l.35.34h.34l.34-.34V89.07c0-.5-.34-.75-1-.75l-.34.34h-.34l-1-.34.35.34-.35.41v.34l.35,1L512,92.15h-.75V88l.34-.34-.34-.34V80h.34c.5,0,.87.93,1.1,2.8H513a4.11,4.11,0,0,1,.68-2.8v-.34l-2.12-2.06V76.48l.41-.34-.41-.35Zm4.93,42.43h2l1.44,1.09c0-.73.23-1.09.68-1.09h3.08V118l-.34.34v.34l.34.34h.41l1.37-1.43h11.84l1,.75,1.36-.75a2.05,2.05,0,0,1,1.44,1.43l-.34.35,2.74,1.36V120q-1.3,0-1.71-2.46h5.88c1,0,2.6.7,4.93,2.12l.68-.69-.34-.34v-1.09h4.52l.68.75V121l-2.12,3.14h.34l1.44-1h.34v4.51l-.34.35.34.34v.34l-.68,1,.68,1.09v4.52l-.68.68h-14v-.34l1.43-.34V135h-.75v.34L544,135h-1v1h-5.54l-1.78-1.37,1.09-2.12c-2.05-.22-3.33-.57-3.83-1l-2.46,1v1c.68,0,1,.36,1,1.09h-.35l.35.35v.34l-.69.68h-4.86v-.34c0-.45.35-.68,1-.68l-1-1.44h-1.71v-.68h-2.12c0,1.18-.68,1.77-2,1.77l-.75-.75V131.5h1.09l-.34-.35V129l.34-.34v-.34a3.36,3.36,0,0,0-2.12-1V127l.34-.34-.34-.34V126l.68-1.09q-.2-.89-1.71-1.71l-1.43.68.41,1.71a3.94,3.94,0,0,1-1.1,2.47v.68c0,.55.59.89,1.78,1v.75h-1.09c0,.68.47,1,1.43,1V135h1.37v.34l-.68.68h-4.52c0-.68-.46-1-1.37-1l-.41-.35v-2.12l.75-1v-1.37h-1.09v-2.81l2.12-1.78c0-.68.46-1,1.37-1v-.69h-1.37l.68-3.49c.46,0,.69.34.69,1,1,0,1.44-.46,1.44-1.37l.34-.34-.34-.34h-.41v-1Zm-5.27,3.83H512l.69.75v1.37h-1.44ZM514,47.6l-.34.34v.41l.34.35h.35l.34-.35,1,1.37v2.05h.41l1-.34v-.34A7.12,7.12,0,0,0,514,47.6Zm.35-5.2,1,.68.35-1-.35-.34h-.34Zm.68,9.72v.75h.69l.75-.75Zm0,35.51V88h.34l1.78-.34V87h-.34Zm.34-4.86v.69h.76c0,.45.34.68,1,.68v2.47h.69l.34-1.78C516.89,83.46,516,82.77,515.41,82.77Zm1.78-3.49a3,3,0,0,0,1.71,2.81l1.78-2.46v-.35h-.34q0,.69-1.44.69v.68h-.34V80l-.68-.69Zm.34-25.73v1.37h.35l.34-1-.34-.35Zm1-8.34v1.36l.69-.68v-.68Zm2.81,40.37.68,1-1.71.68c0,.37.46.71,1.37,1,0-.37.57-.71,1.71-1l.34.34-.34-1.37-.34.35h-.69v-1Zm1,48.72h1l1.44,1.37V136h-3.15l-.69-.68Zm.34-57.82v.41l1-.41v-.69h-.34Zm0,4.93v.34l.35,1h.34l.75-.68Zm0,43.79v.34l2.13,1.78.68-.68h1.37l3.15,2.73.34-.34v-.34c-.91,0-1.37-.57-1.37-1.71l.34-1.78-1,1.44h-.76l-2.39-1.1-1.44.41Zm1-46.6v1h.75v-.35Zm.41-2.46v.75h.34l1-.41v-.69h-.34Zm1.37-24.71v.69h.69l.68-.69Zm.69-7.66-.35,1.44h.69l.68-.69Zm1.71,75.89v.68h.75V119Zm3.14-28.88v1h.35l1.09-.35v-.34Zm1,41.74a3,3,0,0,1,2.81,2.12h.34v.69l-1.71.68h-.69a3.93,3.93,0,0,0-1.43-2.8Zm.41-8v2.12l.34.34v.34h-1.09c0,.37.7.82,2.12,1.37v-.34l-.34-.34v-.35l.34-.34-1-.34c.09-1.19.44-1.78,1-1.78l-.69-.68Zm-.41-5.55v.35l1.09.34v-.34l-.34-.35Zm1.78-66.85-.69,2.12h.35l1-1V52.12Zm0,28.53v.76h1.71v-.76l-.34.41h-.34Zm0,40.38.68.75.69-.75Zm2.05-34.77v1.37L537,88l.68-2Zm1.44,40.38v5.2a4.87,4.87,0,0,0,2.74,2v-.34l-1.37-2.4.68-1.43-1.37-1.37v-1.71Zm.68-49.41a4,4,0,0,1,2.47,1.37.91.91,0,0,1,1-1q0,.56,2.4,1.71V78.6c-1.1,0-2.12-.71-3.08-2.12h-2.12Zm.35,45.23-.35.35v1h.35c0-.68.22-1,.68-1v-.35Zm.34-68.22v.68l.68.69V54.24Zm.34-7.32h1v-1Zm.34,73.08v1.78l.69-.75-.35-1Zm0,5.2v.34l.34,1.1h.35v-.34l-.35-1.1Zm.69-37.91V88l1.09,2.47h.34V88.32c-.45,0-.68-.35-.68-1Zm.75,3.49c0,.68-.25,1-.75,1v.68l1.43-.68v-1Zm-.75,34.08v.68l1.43-.34v-1.37l-1,1Zm3.14-82.12c0,1-.68,1.44-2,1.44l-.34-.41-.34,1.44h2.05l1-2.13v-.34Zm-2.39,39.35.34,1.37h.69l.68-.69-.68-.68Zm.34,2v1.44h.34V84.14Zm.34,43.87v1l-.34,1.78h.34l.69-.68V128Zm1.71-1v.68l.35.35h.68v-.35l-.68-.68Zm3.15.34.34.34.35.35c.45,0,.68.45.68,1.36l1.1.35.34-.35v-.68l-2.12-1.37Zm1.37-42.49.34,1.78,1.1-1-.76-.75Zm2.12,38.32v.68l.34,1.71h.35l.34-2.05-.34-.34Zm4.86,1.37-.68.68a7.49,7.49,0,0,0,1,3.49l-1.37,2.12h.69c0-.45.34-.68,1-.68V129l-.34-1.71,1.37-.34.41.34.34-.34-.34-1.44-1.78.41-.34-.41.34-.34v-.68Z"/><path class="cls-1" d="M617.76,37.88,652.45,136H627.13q-5.75-20.86-6.57-20.87H593.4L598.67,97h16.69v-.34q-7-22-10.13-36.14h-.34q0,4.11-13.89,50.44-4,13.82-5.27,16h-.68v.68l.68,1L583.68,136h-.34l-1-.34-1.78.34h-1.71l-1.09-.34L576,136H571.5l-2.12-.34-1,.34v-.34L568,136h-4.18V131.5l.35-2.13-.35-1,.35.34h.34l.34-.34V128h-1v-4.52l.69-.68h.68l1.1.34v-.34l-.34-1h-.76l-.34.34-1-.34.35-2.81h.34l2.8-9,1,.68.34-.34v-.34l-1-.75,2.05-6.23h.41c0,.46.34.68,1,.68v2.13l.68-.76v-3.08c0-.72.68-1.09,2-1.09v-.34l-.34-1h-.68c-.78,0-1.46,1.16-2.06,3.49h-.68v-.34l2-6.64h1.37v.69h1.1v-1l-.76-1,.76-2.12-.35-.34h-.41c0,1.64-.23,2.46-.68,2.46h-.34l7.66-23h.34v.68h.69l-.69-1c.28-1.87.76-2.81,1.44-2.81l-.41-.34v-.34l10.47-29.91Zm-52.9,93.62v1q1.44-.48,1.44-1ZM567.32,119q0,.69-1,.69l.68.68h.34l1.37-.68V119Zm2.06,1.71c-.92,0-1.37.37-1.37,1.1h1.37V121l1.09-.35-.34-1-.41.34h-.34Zm.34-14.23v.34l1.78.69-.34-1Zm2.12,6.91v1.44h1c0-.46.34-.68,1-.68v-.76l-1.71.41Zm0,16.36v.41l1.71.68c0-.45.37-.68,1.1-.68v-.41l-.76-.69h-1.37Zm2-21.22v.69h1.44v-.69ZM576.36,126l-.69,2.74.69,2.12-2.47,1,.41,1H575c0-.51.45-1,1.37-1.37h1.71v.68c.64,0,1.11.71,1.43,2.12h1l-.68-2.46a.9.9,0,0,0,1-1l-.68-2.12v-.34h.68v-1h-.68l-.69.69v.34l.35,3.15L576.7,129v-1.37l.68-1v-.34ZM575,90.44v.34l.68.68.34-.34v-.68Zm3.83-4.86c0,1.37-.48,2-1.44,2l.35.34v.35c-.69,0-1,.48-1,1.43h1.37c0-1.87.48-2.8,1.43-2.8V85.58Zm-2.12,16.7v.34l.68-.69v-.34ZM577,112v.69h2.46v-.34l-1-.35v.35l-.41-.35Zm1.44-3.49-.41.35v.34l1.09.75h.34v-.34Zm-.41,14.65v.34l.41,1h.68v-1.37Zm1.09-43.87V80l1.71-.34v-.35Zm2.06,20.19c.63.91,1.23,1.37,1.77,1.37V103h.69l.68-1.37a4.4,4.4,0,0,0-2.05-2.12Zm.34,7v1.37l.34-.34h.41l-.41-1Zm2.8,16q0,.69-1,.69a3.4,3.4,0,0,1,1.37,2.39h.34l.68-.68v-.34A1.84,1.84,0,0,0,584.36,122.46Zm.69-27.85-.34.34v.35h1Zm.68-26.48v.75l1.44.34v-.34l-1.1-.75Z"/><path class="cls-1" d="M657.08,37.75H678l.68.68v8l-.68.75h-.69c0-.59-.59-1.3-1.78-2.12v-.69h-.34l-.34.35h-.34l2.12,3.14-1.78,1.37h.34l3.15-1.71.34.34V91.46H677l-1.78-1.09c0,1-.46,1.44-1.37,1.44,0,1.37-.23,2-.68,2h-1.78l-1-.68-.68,1.09.34.34h2v.69A3.36,3.36,0,0,1,674.87,97l.68-1c-.68,0-1-.23-1-.68V93.18h2.12l.68.68v1.78c-.73,0-1.09.23-1.09.68a2.92,2.92,0,0,1,2.46,1.78v4.18L676.24,105H678v-1.37h.68V119q-.68,1.44-1.71,1.44l.69.68,1-.34v9.72H678q0-1.71-.69-1.71l-2.12-1v.34c0,.37.71.71,2.12,1l.35,1.78v.34l-1,1h-.75l-2.06-1.78v.41l1.71,2.05-.34,1h.34c1.42,0,2.13-.46,2.13-1.37h1v2.81l-.68.68H675.9l-1-.68-.68.68h-2.47c-.45,0-.68-.34-.68-1h-2.12c0,.69-.23,1-.69,1h-1.71l-2.12-1.71h-.34v1.71h-4.18v-1h-2.12v.35h.75v.68h-1.43l-.69-.68v-.35l.69-1.09v-1.71h-.69V129.1l1.37-2c0-.73-.34-1.1-1-1.1l-.35-.34v-2.46l.69-.69h1.43l1,.69h1l-.34-.34-1.72-.69-.75-2.05h-.68v1.71h-.69V108.5l.69-.68h.34l2.12.68v.41l1.71-.41h2.81c0-.45-.46-.68-1.37-.68v-.68h-2.46l-.69-.69.34-1.44c-.91,0-1.37-1.27-1.37-3.83l-.41.41h-1l-.69-.75V98.1h1l-.34-.41v-.34l.34-1-1-1.71V38.43Zm-.34,64.87a1.82,1.82,0,0,1,1.77,2c-1,.5-1.43,1.1-1.43,1.78h-.69V103.3l.35-.34Zm.34-10.81,1.78,1.37h1C659.88,92.58,659,92.13,657.08,91.81Zm2.8,18.47c0,.92-.23,1.37-.68,1.37l-1.1-.34-.34.34v1.1c.73,0,1.1.34,1.1,1h.34c0-1.18.57-1.78,1.71-1.78H662A3.62,3.62,0,0,0,659.88,110.28Zm-1.78-59.6v.68l.76.69.34-.34v-.35l-.69-.68Zm0,47v.41a2.82,2.82,0,0,1,2.13,1.37h.34l1-1-1-1.77h-.34A3.41,3.41,0,0,1,658.1,97.69Zm1.1-9v1.71h.68V88.66Zm4.86,8-.34,2.12,1,1v.69l-1.71.34h-1l-.75,1.78V103l.75.68h.35l1.71-.34.34,1.71h.34V103c.46,0,.69-.45.69-1.37l.41-.41h.34l1.37.41v-.41c0-.45-.71-.91-2.12-1.37l-.35-1.71v-.41h.76v-.34c-.73,0-1.1-.23-1.1-.68Zm-2.81,23.74h1.1l.68-.75h-1Zm0,12.52.75,1,1-.34-.34-1.37Zm1.1-5.54v.68h.34l.68-.68Zm1-88.62-.68,1.1H663l1-.41Zm-.68,75.35h.68l.69-.69h-.69Zm.68-23.75v.75l.69.69V90.37Zm1.37,27.92V119q-1,0-1,.69h1l.34-1v-.34Zm-.34,12.59.68.68h1.1v-.68Zm.34-20.6v.34c1,0,1.44.46,1.44,1.37h.68a3.3,3.3,0,0,1,1.71-2.73C666,109.49,664.74,109.83,664.74,110.28Zm.34,16.77v.34h.76q0-.75,1-.75V126Zm.35-34.56v1.37h1.09v-.34l-.34-1Zm.41,14.65h1l.35-.35h.34l-.34-1Zm1-9.79v.34l3.49,2.47V98.79a3.71,3.71,0,0,1-1.78-3.15q-.54,0-1,1.71Zm.35-55.43v.69l.34.34h.68v-.34l-.68-.69Zm0,5.61v.34l4.17,1.72.34.34h.34l-.34-1.71v-.69l.69-1.09h-2.74ZM668.92,126v.35l.75,1.09v.68c0,.69-.48,1-1.44,1v.34H670l.34-1.71C669.9,126.64,669.42,126.05,668.92,126Zm.41-18.81v.34c0,.36.79,1,2.39,1.78v-.76a.9.9,0,0,1-1-1l-.35-.34Zm.34-16.77.68.75c2.06-.68,3.22-1.39,3.49-2.12l-.34-.34A5.3,5.3,0,0,1,669.67,90.37Zm2.39,12.93-1-.34v1.37h1c0-.91.83-1.6,2.47-2v-.69h-.34Zm-.68,7v.34h1.44l-.41-.34v-.34Zm.68,4.86v.34h.35c.09-.91,1-1.36,2.8-1.36v-1.37C673.11,113.43,672.06,114.23,672.06,115.14Zm0,17.79v.69h1.1v-.69Zm.35-83,.75.75h.68v-.75Zm1.09,55.84v.68c.91-.36,1.37-.71,1.37-1Zm2.4-27.58v3.15h.75l.34-1-.75-2.12Zm0,20.6v.68H678v-1Zm.75,16-.41,1.44h1.09l.35-1.44Zm.68-28.26-.68,1.78v.34l1.37-.34-.34-1.78Zm1.37,5.61v3.49H678V95l-.34-2.46.34-.34Zm4.86,25.73q2.19,0,3.15,3.15l-.34.34h.68l.34-.34.34.34h.41l1-1-1.78-1.78v-.68h.34l.41.34h.35l.34-.34,1.71.34h2.81l1.71-.34v.34l.34-.34h1.09l1,.34,1.71-.34h5.95l2.74.68.75-.68H709l.34.34.34-.34h13.89l.69.68v.35h-.35l-1.71-.35-.34.35v.34l2.81.75.34-1.09h.68v6.29a6.08,6.08,0,0,1-3.83-1.78h-2.12v-.68h-2c0-.91-.48-1.37-1.44-1.37v.34c.55,2.1,1.14,3.15,1.78,3.15a.91.91,0,0,1,1,1l.34.34h.34c0-.91.36-1.37,1.09-1.37l1-.69,2,1.37h.76l.34-.34h.34l.34,2.4v4.58l-.34.34.34.35v.34l-.34,2.39-2.46-.34-.69.75h-.68v-.41l-2.46.41H714.9l-.34-.41-.34.41h-2.47l-.34-.41-.34.41H709l-1.44-.41-1.37.41h-2.46l-.69-.75-2.73.75h-9.11c-.45,0-.91-.7-1.36-2.12h-.35l-.68,1-1.1-.34v.34c0,.73-.57,1.09-1.71,1.09h-2v-.75h1.71v-.34l-.34-.34.34-1H686l.35.34h.34l.34-.34v-1.71c0-.5-.34-.75-1-.75l-.34.34h-.34l-1-.34.35.34-.35.41v.34l.35,1-.69,1.71h-.75v-4.18l.34-.34-.34-.34v-7.32h.34c.5,0,.87.93,1.1,2.8H685a4.11,4.11,0,0,1,.68-2.8v-.35l-2.12-2v-1.09l.41-.34-.41-.35Zm3.49,12.52v.34h.34l1.78-.34v-.68h-.34Zm.34-4.86v.69h.75c0,.45.35.68,1,.68v2.46h.69l.34-1.77C688.87,126.23,687.94,125.54,687.39,125.54Zm1.78-3.49a3,3,0,0,0,1.71,2.81l1.78-2.47v-.34h-.34q0,.69-1.44.69v.68h-.34v-.68l-.68-.69Zm4.18,6.3.68,1-1.71.69c0,.36.45.71,1.37,1,0-.37.57-.71,1.71-1l.34.34L695.4,129l-.34.34h-.69v-1Zm1.36-9.1v.41l1-.41v-.69h-.34Zm0,4.92v.35l.35,1h.34l.75-.68Zm1-2.8v1h.75v-.34Zm.41-2.46v.75h.34l1-.41v-.69h-.34Zm6.91,14.64v1h.35l1.09-.35v-.34Zm2.81-10.13v.75h1.71v-.75l-.34.41h-.35Zm2,5.61v1.37l1.1.34.68-2.05Zm2.12-9a4,4,0,0,1,2.47,1.37.9.9,0,0,1,1-1q0,.55,2.4,1.71v-.68c-1.1,0-2.12-.71-3.08-2.12h-2.12Zm2.06,10.06v.68l1.09,2.47h.34v-2.12c-.45,0-.68-.35-.68-1Zm.75,3.49c0,.68-.25,1-.75,1v.68l1.43-.68v-1Zm0-8.69.34,1.37h.68l.69-.69-.69-.68Zm.34,2v1.44h.34v-1.44Zm6.57.69.34,1.77,1.1-1-.76-.75Z"/><path class="cls-1" d="M464.27,157.05c0,.46-1.08,1.08-3.22,1.85v.27l1.64.35q0-1,.69-1l.27,1.57-1,1.51V162h-1l-.68-.62v-1.5a2.91,2.91,0,0,1-2.33-1v.27l-.27-.27h-.27l-2.06.62-.68-1,1-.89v-.28l-.69-.61a2.64,2.64,0,0,0-2.94,2.12h-.34l.34.27v.35l-.69.61H449.9c0-1-.23-1.57-.69-1.57h-.27a2.13,2.13,0,0,0-1.3,2.19c1.23,0,1.85.2,1.85.61h-.28l.28.89h.41c.45,0,.68-.29.68-.89l.27-.34h1l1,.62c0,1.64-.75,2.46-2.26,2.46,0-.36-.55-.55-1.64-.55v-.68h-1q-3.07,4-3.63,4c-.41,0-.61.5-.61,1.5l-.34.28h-1.65l-1.64-.28v.28l.62,1.57-.34.27H441c.46,0,.68-.41.68-1.23.46,0,.69.53.69,1.58h.34l-.75,1.77h.41l1.3.35v.54h-7.6l-2.25-.27-2.95.27H409.18a4.54,4.54,0,0,1-2.67-1.16h-.61l.27.27v.89h-.27l-.35-.27-1.57.27h-4.24l-2.06-1.77v-1.51l.69-1,.27.28h1.1L399,167.8h-.61V166h1.37l.54,1.23v.34h.35l.68-.61v-.35c-.59,0-1.25-.61-2-1.84l.41-1.85q2.19.34,2.19,1v1.5c.63,0,.95.53.95,1.58l2.06,1.16h.27v-1.16h2v1.16l-1.65,1.85v.61h.35q0-1.5,2-1.5h.34c0,.82.55,1.44,1.64,1.85v.27h-.68v.62h1l2.67-.62v-.62l-2.06-.95-.61.68-2.6-3.35.34-1h-.34c-1,0-1.67-.8-2-2.4a2.44,2.44,0,0,0,1.65-1.91h1l.69.61v.28l-.35,1.57.35-.27h.27l1.92.61v-1.57l-.35.34h-.61v-1l1.37-.61h.34v-.28c-1.55,0-2.33-.2-2.33-.61v-.62l.34-1h-.34l-2-.61.34-.28V158l-.68-.62c0,1.42-.44,2.13-1.3,2.13l-1.58.34-.34-2.47-.34.28h-2.33c0,1.23-.23,1.85-.68,1.85h-2v-1.85c0-.37.66-.66,2-.89,0-1.46.22-2.19.68-2.19h2.33v.61H404c0-.82.2-1.23.62-1.23h5.81l2,2.19V154h.35l1,.62h1l1-.62h19.37c.41,0,.61.32.61,1h.34q0-1,.69-1H444l.62.62v.34l-.35.27v.28h.35l1.64-1.51h12.8v.62l-.62.61v-.27l-1,.27v.69h1.65c.41,0,.61.59.61,1.78H460l.69-2.19h.68l.34.41h.35l.34-.41A2.86,2.86,0,0,0,464.27,157.05ZM399,154.59l-.34.34h-.27l-.69-.61L398,154h.34Zm2.6,16.29h-.27v.27c.18,1.23.5,1.85,1,1.85h.34v-1.23Zm3.36-9.24h-1.71l-.62-.62,2-.55.34.28Zm1.57-5.48a.85.85,0,0,1-1-1l-.61.69-.34-.41H404v1.57h.34a3.56,3.56,0,0,1,2.19-.54Zm4.24,1.51h-.34l-.55.61.55.62Zm2.06-.89h-.35l-.61.61v.28h.61l.35-.28Zm1,.89-.62.61.27.89h.35Zm2.32,13.21a1.43,1.43,0,0,1-1.64-1.58h-.34l-.34,2.47h2Zm.62-13.83h-1.3l2,1.51.34-.28Zm5.61-1.57h-.69v.68l-.34-.27H421l-1,.27v-.27l-.34-1h-.27v1a4,4,0,0,1,2.25,4h.69l-.69-2.81.69-.54Zm0,16.29-.34-.28h-1c0,.59-.43.89-1.3.89v.89A4.38,4.38,0,0,1,422,172v.61h.34Zm3.21-5.21h-.61l-.34,1.85h-.28a4,4,0,0,1-2.32-.89h-.35v.55c0,.41.46.62,1.37.62l.35,1.84h1.57Zm-2,85.34V217.55l1-1.65-.34-1v-.35l.34-.41h-1v-2.67l.69-.75h1l.41.41c0-2.51.46-3.76,1.37-3.76l-.34-1.44.68-.61h2.47v-.69c.91,0,1.37-.23,1.37-.68h-2.81l-1.71-.41v.41l-2.12.68h-.34l-.69-.68v-13h.69v1.64h.68l.75-2,1.71-.68.35-.34h-1l-1,.68h-1.43l-.69-.68v-2.4l.34-.34c.69,0,1-.36,1-1.1l-1.37-2v-3.08h.69V179l-.69-1v-.34l.69-.68h1.43v.68h-.75v.34H427v-1h4.18v1.71h.34l2.12-1.71h1.71c.46,0,.68.34.68,1h2.13c0-.68.22-1,.68-1h2.46l.69.68,1-.68h2.13l.68.68v2.74h-1c0-.91-.7-1.37-2.12-1.37h-.34l.34,1L440.93,182v.34l2.05-1.71h.76l1,1V182l-.34,1.71c-1.41.32-2.12.66-2.12,1v.34l2.12-1q.69,0,.69-1.71h.68V192l-1-.34-.68.62c.68,0,1.25.47,1.71,1.43v15.06h-.68v-1.37h-1.78l2.46,2.67v4.1a2.92,2.92,0,0,1-2.46,1.78c0,.41.36.62,1.09.62v1.78l-.68.68h-2.12v-2.12c0-.45.34-.68,1-.68l-.68-1a3.4,3.4,0,0,1-2.81,1.64v.69h-2l-.34.34.68,1.09,1-.68h1.78c.45,0,.68.66.68,2,.91,0,1.37.48,1.37,1.44l1.78-1.1h1.71V251.9Zm.34-42.57-.34-.27v-3.15h.69c0,.69.48,1.28,1.43,1.78a1.79,1.79,0,0,1-1.78,2Zm.14-48.86h-.27v1.17h.61v-.28ZM427,219h-1l-1.78,1.3C426,220,427,219.53,427,219Zm-1.44-61.31h-.27l-1,.89h.28Zm3.56,42.84H428a1.51,1.51,0,0,1-1.71-1.71H426c0,.63-.37.95-1.1.95v1.1l.34.34,1.1-.34c.45,0,.68.45.68,1.37A3.62,3.62,0,0,0,429.09,200.51Zm-1.78,15.05h.35l1-1.78-1-1h-.35a2.76,2.76,0,0,1-2.12,1.37v.41A3.39,3.39,0,0,1,427.31,215.56Zm-1.09-59.05-.34-.35h-.35v.35h.35l-.35.27v.61h.35Zm.75,66.85v-1.64h-.68v1.64Zm1-53.78-1.37-.28v.62h1.37Zm1.85,11.08.34-1.37-1-.34-.75,1ZM429.09,193h1l-.68-.75h-1.1Zm2.74,22.58c0-.45.37-.68,1.1-.68v-.35h-.76v-.41l.35-1.64c1.41-.45,2.12-.91,2.12-1.37v-.41l-1.37.41h-.34l-.41-.41c0-.91-.23-1.37-.69-1.37v-2h-.34l-.34,1.71-1.71-.34h-.35l-.75.61v.35l.75,1.77h1l1.71.35v.68l-1,1,.35,2.12Zm-1.71-58.51h-.62l-.95,1,.68,1.51h.27l.62-.62-.34-1.51Zm1.09,12.87h-.34l-2.32.34v.89c1,0,1.57.5,1.57,1.5a2.61,2.61,0,0,0,2.05-1.77Zm-1.71-5.2h-.61V166l.89,1h.34v-.35Zm1,20.73-.68-.68h-.34v.68Zm0,13.62h.69l-.69-.62h-.68Zm.69,22.65v-1.44l-.69.69v.75Zm1-27.37V194l-.34-1h-1c0,.45.35.68,1,.68v.69Zm0-27.44h-1v.27l.28.89h.68Zm1.1,15.12v-.68h-1.1l-.68.68Zm2.39,21.14a3.13,3.13,0,0,1-1.71-2.66h-.68c0,.91-.48,1.36-1.44,1.36v.35C431.83,202.63,433.11,203,435.66,203.17ZM434,186.82v-.68q-1,0-1-.69h-.76v.27Zm-.68,32.78.34-1v-.34h-1.09v1.3Zm1-13,.35-1h-.35l-.34-.34h-1Zm-.13-50.71h-.69l-.34.89.34.27h1.65v-.27Zm.48,59c.32,1.09.66,1.64,1,1.64a3.66,3.66,0,0,1,1.78-3.08v-1.3L434,214.53v.35ZM437.72,161c-1.1,0-1.65-.18-1.65-.55l.35-.95a3.54,3.54,0,0,1-2.26.61v.62c0,.36.52.66,1.57.89l.34-.28.69,1.17h-.69v.34h1.3Zm-2.26,8h-.34l-.69.55h1Zm6.5-10.75v.89h-.28l-.34-1.5h-.68v.61h-1.3l-1.64.28-.62-1.78h.27l-.27-1.58h-.34l-.34.28h-.35l.69,3.08h-.69v.61h2.4v1.58l1.23-.28,1,.28v2.12l-1,1-.34-.28h-.62l-.68.55h1v.62L437.72,166h-.35l-.27-.34-.34.34h-.34l-1.65-.34v.61l2.6.34-.27.35v.61h.27c0-.41.57-.61,1.71-.61.09-1,.42-1.58,1-1.58l2.67,1.23v-.95H442v-.89l.41-.28v-.34l1.64.34h.27v-.61l-1.91-.28.34-.34v-.34l-1-.34v-2.06h-1.36v-1.3H441v.69h.34l1-.34v.34c0,.45.75.84,2.26,1.16v-1.16Zm-4.52,26.83-.34-1.71h-1.78v.34c1,0,1.44.34,1.44,1v.68l-.76,1v.34Q436.77,186.69,437.44,185.11Zm-.07-14.58h-1.3c0,.32.44.64,1.3,1Zm.07,34.77.34-.35a.91.91,0,0,1,1-1v-.76c-1.6.83-2.39,1.42-2.39,1.78v.35Zm3.15,18.06.34-.34c-.27-.68-1.43-1.37-3.49-2.05l-.68.75A5.42,5.42,0,0,1,440.59,223.36Zm.68-12.66h.35V210c-1.65-.46-2.47-1.12-2.47-2h-1v1.3l1-.27Zm-1.77-8.21v-.27l.41-.35h-1.44v.35Zm.75-22.51v-.69h-1.1V180Zm2.05,19.77v-1.3c-1.78,0-2.71-.45-2.8-1.37h-.35v.35C439.15,198.34,440.2,199.11,442.3,199.75Zm-.34,7.19c0-.32-.46-.66-1.37-1v.69Zm3.15,6.84v-1H443v.69Zm-1.78,19.85.75-2.06-.34-1H443v3.08Zm1.43-35.86-.34-1.44h-1.09l.41,1.44Zm0,27.71.35-1.78-1.37-.34v.34l.68,1.78Zm26.08-56.79-.62,1.84h.62v3H470l.27-2v-.34H470l-1.1,2.39H465v-.89h-.68c0,.6-.21.89-.62.89H447.91c0-.77-.77-1.16-2.33-1.16l-.34.27-.61-.88v-.89c0-.41.54-.62,1.64-.62v-.34c-1.1,0-1.64-.3-1.64-.89v-1.51l.61-.61h1.37c0,.59.23.89.69.89l1.64-.28-.34-.34v-.27l-.35.27h-.95l-.69-.62v-.95c.41-1,1.37-1.51,2.88-1.51h.41l.34,1,1.91-.62q0,1.17,1.65,1.17v2.46h1.37v1.85l.27.34v.27c.68,0,1-.41,1-1.23l2-.27-.27-.34v-.28l-.35.28h-.75l-1-.89-.34-1.24h-1l.35-.34v-.61l-2-.55.62-1.23h-.62v-3.08h1.3l1.64.27c0-.59.21-.89.62-.89h1.44l.27.89c-1.55.37-2.33,1.21-2.33,2.53h.35a2.69,2.69,0,0,1,2.25-1.57l.69.55-.34.34v1.57h2c.46,0,.68.3.68.89h.69c0-1.18.61-1.78,1.85-1.78l-.28-.34v-.34l.62-2.74-.34-.27H465c0,.59.23.89.68.89h1v-.62H466l.34-1.57V158H466v.55h-.62l-.41-1.17h1.71v.89H468l.34-.27h.28a2,2,0,0,0,2,1.16v1l-1,.89-.75-.55L467,161v.62h1.3V162l-.68.55-.34-.28H467v.62l.62,1.85h.68c0-1.14.76-2.47,2.26-4h.28Zm-25.73,51.25-.35-.34.35-2.4v-.68h.68v3.42Zm4.79-63.43-.41-.35h-.89l.89.89.41-.27Zm2.6,11.9h-.35l-.95.28v1.23h.68l.62-1.23Zm.68,2.74-.68.62v.61h.34l1-.34v-.27Zm1.3-15.67-1-.28-.34.28v.41l1,.62.34-.35Zm6.57,13.82c-1.14,0-1.8-.29-2-.89l.34-1.23-.34-2.12h-.89l.89,4.24.61.62h.69ZM465.36,154v.62l-1.71.34-2.26-.34.69-.62Zm-2.67,14.72h-1v.61l1-.27Zm2.26-1.17h-.68c0,.37-.41.55-1.24.55v.62l1.58-.89H465Zm2.67-1-.34-.34H467l-1,1,.34.34v.55c0,1-.46,1.51-1.37,1.51v.95h.41A8.19,8.19,0,0,0,467.62,166.56ZM465,170.88V172l.68-.55Zm5.89-13.62-1.58.41c-.64,0-1.5-.82-2.6-2.47h-.34V154h2.53l2,.55Z"/><path class="cls-1" d="M496.24,153.36l.34.34h3.83l.69.68V193.8l-.35,1.37.35,1h-.35l.35.35V208l-.35.41.35.35v42.49l-.69.69h-2.12v-1h-.68c0,.68-.23,1-.69,1H485.77v-1h-.69v1h-5.61l-.68-.69v-96.9l.68-.68H495.9Zm-14.3,89.23v.68h1v-.68Zm.34,5.2v1l.68-.69v-.34Zm1.37-.34h1.43l-.75-.69Zm4.51-2.46v.34c1.64-.23,2.47-.57,2.47-1V244h-1.37Zm1.1,3.14.34,1h.34v-1ZM492.41,207c0,.86-.71,1.46-2.13,1.78v.34h1.78l.69-1.78V207ZM491,237.66V238l1.09,1.09h.35v-1.44Zm2.46,10.47-.68.69v1.09l1-1.43v-.35Zm-.34-9v.68h1l-.69-.68Zm1-28.6v.68h1.36l.42-1.37h-.42Zm.34,36.95-.34.34v.34h1Zm2.46-19.5c0,.68-.71,1-2.12,1v.69l2.81-1V228Zm-.34-32.78.68.68h.35v-.68ZM498,225.82l-.34,1.44h.68l.34-1.44Zm1.37-32.7a1.21,1.21,0,0,1-1.37,1.36v.35h.34c1-.46,1.64-.92,1.78-1.37v-.34Zm-1,13.89v.68h1.44V207Zm.68-23.68V184h1.1v-.68Zm6.3-29.63h18.82q20.94,1.1,20.94,6h1.71q9.78,7,9.79,21.22,0,15.66-11.91,22l-.69-.68q0,1.71-4.17,2.46V205q6,0,11.15,10.75l-.34.41H549.2l-.34-.41h-.41l-.34,1.43h.34l2.12-.34q1.36,0,2.12,7.67h-.75l-1.71-.35-1.37,1.71q1,0,1.71,1.44V228l-.34.34v.34h2.46V228h.69l2,10.81c-1.37.45-2,.91-2,1.37v.34h1.71q1,0,2.12,4.86l-1.1,1.09v1l1.1-.69h.34c.55.23,1.48,1.51,2.81,3.84L558.92,252h-5.54l.68-2.81v-1c-.68,0-1.14,1.28-1.37,3.84h-6l-.69-.69.35-.34h.68l1.78.34v-1l-.41-1.43,1.1-1.37,1.71.34,1.43-.34v-1.78c-3.51.78-5.27,1.48-5.27,2.12l.35,2.12-.35.34h-3.14c0,1.15-.23,1.72-.69,1.72h-5.54q-1.17,0-4.18-8.35l.35-1q-1,0-3.84-18.48a11.71,11.71,0,0,0-5.61-7,35,35,0,0,0-11.15-1.43v-1h.68V214h-.68c0,.45-.46.68-1.37.68v1l-5.95.41h-1l-.68-.75v-6.57c0-.51.57-.76,1.71-.76v-.68H506l-1,.34-.34-.34v-8.69l.68-.69H514q20.6,0,20.6-12.18V183q-1.23-10.12-9.79-10.13c0-.41-2.89-.64-8.69-.68H505.27l-.68-.69V154.38Zm4.18,54V208l2.12,1.1h3.08v-.69h-3.08c-.51,0-.76-.36-.76-1.09Zm.68-8.35V200l.68.75-.34.34v1h1.44l-.34-.34v-.35l1-1.43-2.12-.69Zm3.49-.68-.34,1.37h1v-1.37Zm1.44,10.47.68.68h2v-.34l-.68-.68Zm3.83-3.15.34,1h.68l.69-.69V206l-1.71-.34Zm8-8,.69,1-.34.34h-.35l-.34-.34a9.28,9.28,0,0,0-4.58,1.78h-1l.34.34v.34l-.68,2.06h1a2.77,2.77,0,0,0,2.12-2.74l1-.75h1.44c.68,0,1,.48,1,1.43h.68l1-1.78c-.46,0-.69-.45-.69-1.36l-.34-.35Zm2.4,14.65,1.09,5.2h.69v-1l-.69-2.8.69-1v-.34Zm3.15-8.42-.69,1.44,3.49,1.37v-.69c-.45,0-.68-.45-.68-1.37l-1.44-.75Zm0-9.72,1.43,1.37h1.37l.69-.68h-2.81v-.69Zm1,39c.28,1.41.64,2.12,1.1,2.12l.68-.68v-.41l-1-1Zm.76-13.21-.35,1.37V222h.35l.34-1.37v-.34Zm1.37-10.47-.35.34v.69l1.37-.69v-.34Zm-.35,16.7,1.37,2.12h.69V228c-.69,0-1-.48-1-1.44Zm.35,14a3.93,3.93,0,0,1,2.8,2.12l3.15,1v-1a4.3,4.3,0,0,1-3.83-2.46l-.41-.35h-1Zm.68-4.86.68.69h.76v-.69Zm0,9,.68.69h.35l-.69-.69Zm.34-46v2.8h.69v-2.8Zm.69,33.12v.34h.75v-1Zm1.78-41.47-.35,1,.35,1h.34l.34-2.05Zm1,30.31V221h.34l1.1-1v-.75Zm0,28.88v.75h.34l1.78-.34v-1.09h-.68Zm1-25.73h.41l.68-.75h-.34Zm1.78,6.57-1-.68-.75.68v.34h2.46l.34.41c1.42-.5,2.12-1,2.12-1.43l-.34-.34h-.34A4.08,4.08,0,0,1,542.91,230.34Zm-1.78,3.83.41,1.44h.34l1.37-.68v-.76Zm1.09-5.88v.34l.69.69h.68l.69-.69Zm2.4,15c0,.92-.23,1.37-.69,1.37l.35.35v.34l-.69,1.09v.34H545v-3.49ZM544.28,175h.34l.75-.68H545Zm.75,48.79v.69l1.71-.35v-.34Zm.68,13.89c0,.46.8,1.17,2.4,2.12h.75v-.34c0-.36-.82-1-2.46-1.78Zm.34-10.4h.69l1.37-.75v-.69h-.34C546.72,226.28,546.15,226.76,546.05,227.26Zm1.72-8.76-.69,1.1,1.37,1,.41-.34h.34l2.06,1.37v-2.8h-1l-1.78.34Zm-.69,15.67v.76h1.37v-.76Zm.34-19.5V215l1,.35v-.69Zm1,6.64v2.12c.5,0,.75-.36.75-1.09l-.34-1Zm1.44,19.84.68.69.69-.69Zm3.83,2.12V244h1.37v-.69Z"/><path class="cls-1" d="M617.51,154,652.2,252.1H626.89q-5.76-20.86-6.57-20.87H593.15l5.27-18.13h16.7v-.35q-7-22-10.13-36.13h-.34q0,4.11-13.9,50.44-4,13.81-5.26,16h-.69v.68l.69,1-2.06,7.32h-.34l-1-.34-1.78.34h-1.71l-1.09-.34-1.71.34h-4.52l-2.12-.34-1,.34v-.34l-.34.34h-4.17v-4.51l.34-2.13-.34-1,.34.34h.34l.34-.34v-.34h-1v-4.52l.68-.68H565l1.09.34v-.34l-.34-1H565l-.35.34-1-.34.34-2.81h.34l2.81-9,1,.68.35-.34V226l-1-.75,2.05-6.23h.41c0,.46.35.68,1,.68v2.13l.68-.76V218c0-.73.69-1.09,2.06-1.09v-.34l-.35-1h-.68c-.78,0-1.46,1.16-2,3.49h-.69v-.34l2.06-6.64h1.36v.68h1.1v-1l-.75-1,.75-2.12-.34-.34h-.41q0,2.46-.69,2.46h-.34l7.66-23h.35v.68h.68l-.68-1c.27-1.87.75-2.81,1.43-2.81l-.41-.34v-.34L592.12,154Zm-52.9,93.62v1q1.44-.48,1.44-1Zm2.47-12.53c0,.46-.34.69-1,.69l.69.68h.34l1.37-.68v-.69Zm2,1.71c-.91,0-1.37.37-1.37,1.1h1.37v-.75l1.1-.35-.35-1-.41.34h-.34Zm.34-14.23v.34l1.78.69-.34-1Zm2.12,6.91v1.44h1c0-.46.34-.69,1-.69v-.75l-1.71.41Zm0,16.36v.41l1.71.68c0-.45.37-.68,1.1-.68v-.41l-.75-.69h-1.37Zm2.06-21.22v.69h1.43v-.69ZM576.11,242l-.68,2.74.68,2.12-2.46,1,.41,1h.68c0-.5.46-.95,1.37-1.36h1.71v.68c.64,0,1.12.71,1.44,2.12h1l-.68-2.46a.91.91,0,0,0,1-1l-.69-2.12v-.34h.69v-1h-.69l-.68.69v.34l.34,3.15-3.15-2.47v-1.37l.69-1v-.34Zm-1.37-35.51v.34l.69.68.34-.34v-.68Zm3.83-4.86c0,1.37-.48,2.05-1.43,2.05l.34.34v.35c-.69,0-1,.48-1,1.43h1.37c0-1.87.48-2.8,1.44-2.8v-1.37Zm-2.12,16.7v.34l.69-.69v-.34Zm.34,9.71v.69h2.47v-.34l-1-.35v.35l-.41-.35Zm1.44-3.49-.41.35v.34l1.1.75h.34v-.34Zm-.41,14.65v.34l.41,1h.69v-1.37Zm1.1-43.87v.69l1.71-.34v-.35ZM581,215.56c.64.91,1.23,1.37,1.78,1.37v2.12h.68l.69-1.37a4.42,4.42,0,0,0-2.06-2.12Zm.34,7v1.37l.34-.34h.41l-.41-1Zm2.81,16c0,.46-.35.69-1,.69a3.4,3.4,0,0,1,1.37,2.39h.34l.69-.68v-.34A1.85,1.85,0,0,0,584.12,238.55Zm.68-27.85-.34.34v.35h1Zm.69-26.48V185l1.43.34V185l-1.09-.75Z"/><path class="cls-1" d="M655.49,153.77h20.94l.68.68v8l-.68.75h-.69c0-.59-.59-1.3-1.77-2.12v-.68h-.35l-.34.34h-.34l2.12,3.15-1.78,1.36h.34l3.15-1.71.34.35v43.59H675.4l-1.78-1.1c0,1-.45,1.44-1.37,1.44,0,1.37-.22,2-.68,2h-1.78l-1-.68-.68,1.09.34.34h2.06v.69a3.35,3.35,0,0,1,2.8,1.71l.69-1c-.69,0-1-.23-1-.68V209.2h2.12l.68.68v1.78c-.73,0-1.09.23-1.09.68a2.92,2.92,0,0,1,2.46,1.78v4.18L674.65,221h1.78v-1.36h.68V235q-.68,1.44-1.71,1.44l.69.69,1-.35v9.72h-.68q0-1.71-.69-1.71l-2.12-1v.35c0,.36.71.7,2.12,1l.35,1.78v.34l-1,1h-.75l-2.06-1.78v.41l1.72,2-.35,1H674c1.41,0,2.12-.45,2.12-1.37h1v2.81l-.68.68h-2.12l-1-.68-.68.68h-2.47c-.45,0-.68-.34-.68-1h-2.12q0,1-.69,1h-1.71l-2.12-1.71h-.34v1.71H658.3v-1h-2.13v.34h.76v.68h-1.44l-.69-.68v-.34l.69-1.1v-1.71h-.69v-3.15l1.37-2.05c0-.73-.34-1.1-1-1.1l-.35-.34v-2.46l.69-.69h1.44l1,.69h1l-.34-.34-1.71-.69-.76-2h-.68v1.71h-.69V224.52l.69-.68h.34l2.12.68v.42l1.71-.42h2.81c0-.45-.46-.68-1.37-.68v-.68h-2.46l-.69-.69.35-1.44c-.92,0-1.37-1.27-1.37-3.83l-.41.41h-1l-.69-.75v-2.74h1l-.34-.41v-.34l.34-1-1-1.71V154.45Zm-.34,64.87a1.83,1.83,0,0,1,1.78,2.05c-1,.51-1.44,1.1-1.44,1.78h-.69v-3.15l.35-.34Zm0,0a1.83,1.83,0,0,1,1.78,2.05c-1,.51-1.44,1.1-1.44,1.78h-.69v-3.15l.35-.34Zm.34-10.81,1.78,1.37h1C658.3,208.6,657.36,208.15,655.49,207.83Zm2.81,18.47c0,.92-.23,1.37-.69,1.37l-1.09-.34-.35.34v1.1c.73,0,1.1.34,1.1,1h.34a1.54,1.54,0,0,1,1.71-1.77h1.1A3.66,3.66,0,0,0,658.3,226.3Zm-1.78-59.6v.69l.75.68.34-.34v-.34l-.68-.69Zm0,47v.41a2.82,2.82,0,0,1,2.12,1.37H659l1-1-1-1.78h-.34A3.41,3.41,0,0,1,656.52,213.71Zm1.09-9v1.71h.69v-1.71Zm4.86,8-.34,2.12,1,1v.69l-1.71.34h-1l-.76,1.78V219l.76.69h.34l1.71-.35.34,1.71h.34V219c.46,0,.69-.45.69-1.37l.41-.41h.34l1.37.41v-.41c0-.45-.71-.91-2.12-1.37l-.34-1.71v-.41h.75v-.34c-.73,0-1.1-.23-1.1-.68Zm-2.81,23.74h1.1l.68-.75h-1Zm0,12.52.76,1,1-.34-.34-1.37Zm1.1-5.54v.69h.34l.68-.69Zm1-88.62-.68,1.1h.34l1-.41Zm-.68,75.35h.68l.69-.69h-.69Zm.68-23.75v.75l.69.69v-1.44Zm1.37,27.92V235q-1,0-1,.69h1l.35-1v-.34Zm-.34,12.59.69.69h1.09v-.69Zm.34-20.6v.35c1,0,1.44.45,1.44,1.37h.69a3.28,3.28,0,0,1,1.71-2.74Q663.15,225.63,663.15,226.3Zm.35,16.77v.34h.75c0-.5.34-.75,1-.75V242Zm.34-34.56v1.37h1.09v-.34l-.34-1Zm.41,14.65h1l.34-.35H666l-.34-1Zm1-9.79v.34l3.48,2.47v-1.37a3.7,3.7,0,0,1-1.77-3.15c-.37,0-.71.57-1,1.71Zm.34-55.43v.69l.34.34h.68v-.34l-.68-.69Zm0,5.61v.35l4.17,1.71.34.34h.35l-.35-1.71v-.69l.69-1.09h-2.74ZM667.33,242v.35l.75,1.09v.69q0,1-1.44,1v.34h1.78l.34-1.71C668.31,242.66,667.83,242.07,667.33,242Zm.41-18.81v.34c0,.36.8,1,2.39,1.78v-.76a.9.9,0,0,1-1-1l-.35-.34Zm.34-16.77.68.75c2.06-.68,3.22-1.39,3.49-2.12l-.34-.34A5.3,5.3,0,0,1,668.08,206.39Zm2.4,12.93-1-.34v1.37h1c0-.91.82-1.6,2.46-2v-.69h-.34Zm-.69,7v.35h1.44l-.41-.35V226Zm.69,4.86v.34h.34c.09-.91,1-1.36,2.8-1.36v-1.37C671.52,229.45,670.48,230.25,670.48,231.16Zm0,17.79v.69h1.09V249Zm.34-83,.75.75h.68V166Zm1.09,55.84v.68c.91-.36,1.37-.71,1.37-1Zm2.4-27.58v3.15h.75l.34-1-.75-2.12Zm0,20.6v.68h2.12v-1Zm.75,16-.41,1.44h1.09l.35-1.44Zm.68-28.26-.68,1.78v.34l1.37-.34-.34-1.78Zm1.37,5.61v3.49h-.68V211l-.34-2.47.34-.34Zm0,0v3.49h-.68V211l-.34-2.47.34-.34Z"/><path class="cls-1" d="M690,161h.69l11.83,20.19c-.45,0-.68.34-.68,1-1.41,0-2.12.8-2.12,2.39l-3.08-.34v.34c0,.55-1.28,1.14-3.83,1.78l-.69.68h-.41l-1.37-1.71H690Zm7.32,24.71c1.05.45,1.62.91,1.72,1.36l-.69,1.78c.46,0,.69-.36.69-1.09h2.12l1-.69h.34l.69.69-.69,1.09v.35h.69c1.18-.5,1.78-1,1.78-1.44h1a4.2,4.2,0,0,1,2,3.49v.34c-2.56.23-4.06.57-4.52,1h-3.83q0,.75-1.71.75l-1,1-1.78-.35h-1l-2.47,1.37h-1l-.69-.68v-3.15l.34-.34-.34-.34v-1.71h.34l.69.68-.34.34v.35l2.46.34c0-.46.8-.8,2.4-1l-.35-1.78h2.12v-.34l-.68-1.71h.34Zm9,9h1.37l.34-.34h.41c.23,2.1.91,3.14,2.05,3.14l.34-.34.69,2.06v2.46h-1.37v.68h1.37l.68,49.41-.34.34H693.1l-1.44-.34-1.37.34-.34-.34v-52.9a2.88,2.88,0,0,1,2.81-2.12,3.52,3.52,0,0,0,2.39-.68h.69c2.09,1,3.15,1.66,3.15,2.12l1-.34c1,.23,1.44,1,1.44,2.39h.34l.68-.68v-.69c-.91-.86-1.36-1.57-1.36-2.12h-1.78l-1.71-.34v-.68l1-1h4.52v.68h1.44v-.68l-.41-.34V194l2.12-1Zm-16-40.72h20.88a142.08,142.08,0,0,1,10.12,17h-.75a34.38,34.38,0,0,1,6.3,8.69v.69l-.69,1.09c.91.09,1.37.44,1.37,1l-.34.34a3.15,3.15,0,0,1,3.15,3.49l-.69.68h-3.83v.69h-2.46v.68h-2.06l-4.17,1.1v-.34l-2.81.68-.68-.68h-1q0,1-.75,1h-.34l-2.74-4.86V185h.68c0,.69.69,1,2.06,1l1.44-.69.68.69,1.71-.34V185a3.81,3.81,0,0,1-3.15-1.78l-1.71-.34v-.68h-1v.68H708c-.69,0-1-.68-1-2q-1.5,0-5.2-7.32Q691.32,156.77,690.29,154Zm3.15,47.7a4.33,4.33,0,0,1,1.37,2.74h.34c.87-.92,1.58-1.37,2.12-1.37v-.69c-.68,0-1-.22-1-.68Zm0,11.08v.76l.69.68h.34l-.34-.34v-.34l.34-.41v-.35Zm3.83-6.91-.34.35v.34h1.37v-.34Zm5.89-3.49c0,1.05-1.16,1.62-3.49,1.71v1.78H700a4,4,0,0,1,2.81-1.43c0-.92.34-1.37,1-1.37v-.69Zm-2,6.23h1.36l.69-.68v-.35C701.79,207.78,701.11,208.12,701.11,208.58ZM703.84,185h.76l1,1.37-1,.68h-.76l-1-1Zm0,20.19v.68H706v-.68Zm.35-46.67v.34l.75.69v-.35Zm1.43,37.91-.34,1.78v1h.34c.69-.23,1-.92,1-2.06Zm3.49-2.4h.69a2.31,2.31,0,0,1,1.37,2.4h-.35A2.43,2.43,0,0,1,709.11,194Zm0,10.41v.34l.69.75h.34l-.34-1.09Zm22.59-15.26H732q2.46,2.32,2.46,4.17c-.59,0-.94.46-1,1.37l1,.68h.34l-.34-.34v-1h1l34.08,57.42v.68h-6.92l-2.12-.68-.68.68h-10.4q-1.65-1.29-24-39.35-8.49-13.27-9.1-15.26h.75v-.34h-.75l-.35.34c-1.59-2.5-2.39-4.15-2.39-4.92h2.74v.75h1.78l1.71.34.34-1.43,1.78.34h2l2.12-1.37,1,.68h.34c0-1.14,1.05-1.93,3.15-2.39l1,.34Zm-13.9-9.79v2.81c-.95.09-1.43.43-1.43,1v.35h2.12c0,1.41.45,2.12,1.37,2.12v-1.1l1.78.41h.68l2-1.43-.34-.35v-.34c0-.59.48-.93,1.44-1v-.34h-3.83c-2.1-.64-3.15-1.34-3.15-2.12Zm.35-4.17-.35.34v1.09l.69.69.68-.69v-.41Zm4.85,7v1.37l-.68.68H722l-.69-.68Zm1.78,13.2v.69h1v-.69Zm3.08,2.47v.34l1.44.34h.34v-.34l-.68-.69Zm1.1,1v1l.68-.68v-.35Zm3.76,2.06v.41h1.44v-.41Zm1.78,0h1l1-1.71h-.34Q735.33,199.21,734.5,200.92Zm1.37,17.45v.68h.34l.69-.68Zm2.8-7.67h1V210h-.34Zm.69-5.54-.34,1v.34h.34l.68-.69v-.68ZM750.17,154l.34.35.35-.35H754l1.37.35,2.46-.35h11.43l.76.69v2.46h-1.78v.69c1.18,0,1.78.22,1.78.68v24.7q0,.69-1.44.69v.34q1.44,0,1.44.75v59.47h-.76L758.86,226h.69l-.69-.75-.34.41q-9.78-15.33-9.79-17.79l-.34-10.41v-9.78l.69-1-.69-.68v-3.15l2.81-.68v-1.78l.68-1a4.94,4.94,0,0,1-3.83-2.05V163.69l-.34-9.37.34-.35Zm-2.46,95,.68.69h1.78v-.34l-1.78-.35Zm.68-70.62a3.6,3.6,0,0,1,2.12,1.72v.75l-.68.68h-1.1l-.68-.68V179l.34-.34Zm2.47,12.87-.35.34v.34l1.71.35v-.69ZM754,164.79v.34l.35,1,1-1Zm1.71,25v.69h.35l.68-.69Zm1.37-31.34-.34.34v.34h1.09Zm0,4.86V164h1.78v-.68Zm1.78,11.15.69.69v-1.37Zm2.81,72.4-.41.34v.35h1.09Zm0-90.46v1.37l.68-.69v-.68Zm1,6.22V163h.69l1.37-1h-.69Zm1.71,52.22.69.68h.34v-.68Zm.69-43.87v.34h.75c0,.73.23,1.1.69,1.1h1V172l-2.12-1Zm1.09,9v.34l1.71.41h.35v-.41l-1.71-.34Z"/><path class="cls-1" d="M782.68,153.77h20.94l.68.68v8l-.68.75h-.69c0-.59-.59-1.3-1.78-2.12v-.68h-.34l-.34.34h-.34l2.12,3.15-1.78,1.36h.34l3.15-1.71.34.35v43.59h-1.71l-1.78-1.1c0,1-.46,1.44-1.37,1.44,0,1.37-.23,2-.68,2H797l-1-.68-.68,1.09.34.34h2v.69a3.36,3.36,0,0,1,2.81,1.71l.68-1c-.68,0-1-.23-1-.68V209.2h2.12l.68.68v1.78c-.73,0-1.09.23-1.09.68a2.93,2.93,0,0,1,2.46,1.78v4.18L801.84,221h1.78v-1.36h.68V235q-.69,1.44-1.71,1.44l.68.69,1-.35v9.72h-.68q0-1.71-.69-1.71l-2.12-1v.35c0,.36.71.7,2.12,1l.34,1.78v.34l-1,1h-.76l-2-1.78v.41l1.71,2-.34,1h.34c1.42,0,2.12-.45,2.12-1.37h1v2.81l-.68.68h-2.13l-1-.68-.69.68h-2.46c-.46,0-.68-.34-.68-1h-2.13c0,.68-.22,1-.68,1h-1.71L790,250.39h-.34v1.71h-4.18v-1h-2.12v.34h.75v.68h-1.43l-.69-.68v-.34l.69-1.1v-1.71H782v-3.15l1.37-2.05c0-.73-.34-1.1-1-1.1l-.34-.34v-2.46l.69-.69h1.43l1,.69h1l-.35-.34-1.71-.69-.75-2h-.68v1.71H782V224.52l.69-.68H783l2.12.68v.42l1.71-.42h2.81c0-.45-.46-.68-1.37-.68v-.68h-2.47l-.68-.69.34-1.44c-.91,0-1.37-1.27-1.37-3.83l-.41.41h-1l-.69-.75v-2.74h1l-.34-.41v-.34l.34-1-1-1.71V154.45Zm-.35,64.87a1.83,1.83,0,0,1,1.78,2.05c-1,.51-1.43,1.1-1.43,1.78H782v-3.15l.34-.34Zm0,0a1.83,1.83,0,0,1,1.78,2.05c-1,.51-1.43,1.1-1.43,1.78H782v-3.15l.34-.34Zm.35-10.81,1.78,1.37h1C785.48,208.6,784.55,208.15,782.68,207.83Zm2.8,18.47c0,.92-.23,1.37-.68,1.37l-1.1-.34-.34.34v1.1c.73,0,1.1.34,1.1,1h.34a1.54,1.54,0,0,1,1.71-1.77h1.09A3.6,3.6,0,0,0,785.48,226.3Zm-1.78-59.6v.69l.76.68.34-.34v-.34l-.69-.69Zm0,47v.41a2.79,2.79,0,0,1,2.12,1.37h.35l1-1-1-1.78h-.35A3.37,3.37,0,0,1,783.7,213.71Zm1.1-9v1.71h.68v-1.71Zm4.86,8-.35,2.12,1,1v.69l-1.71.34h-1l-.75,1.78V219l.75.69H788l1.71-.35L790,221h.34V219c.46,0,.69-.45.69-1.37l.41-.41h.34l1.37.41v-.41c0-.45-.71-.91-2.12-1.37l-.35-1.71v-.41h.76v-.34c-.74,0-1.1-.23-1.1-.68Zm-2.81,23.74H788l.68-.75h-1Zm0,12.52.75,1,1-.34-.34-1.37Zm1.1-5.54v.69h.34l.68-.69Zm1-88.62-.68,1.1h.34l1-.41Zm-.68,75.35H789l.69-.69H789Zm.68-23.75v.75l.69.69v-1.44Zm1.37,27.92V235c-.68,0-1,.23-1,.69h1l.34-1v-.34ZM790,246.9l.68.69h1.1v-.69Zm.34-20.6v.35c1,0,1.44.45,1.44,1.37h.68a3.31,3.31,0,0,1,1.71-2.74C791.62,225.51,790.34,225.85,790.34,226.3Zm.34,16.77v.34h.76q0-.75,1-.75V242Zm.35-34.56v1.37h1.09v-.34l-.34-1Zm.41,14.65h1l.34-.35h.35l-.35-1Zm1-9.79v.34l3.49,2.47v-1.37a3.69,3.69,0,0,1-1.78-3.15c-.36,0-.71.57-1,1.71Zm.34-55.43v.69l.35.34h.68v-.34l-.68-.69Zm0,5.61v.35l4.18,1.71.34.34h.34l-.34-1.71v-.69l.68-1.09h-2.73ZM794.51,242v.35l.76,1.09v.69q0,1-1.44,1v.34h1.78l.34-1.71C795.5,242.66,795,242.07,794.51,242Zm.42-18.81v.34c0,.36.79,1,2.39,1.78v-.76a.91.91,0,0,1-1-1l-.34-.34Zm.34-16.77.68.75c2-.68,3.22-1.39,3.49-2.12l-.34-.34A5.3,5.3,0,0,1,795.27,206.39Zm2.39,12.93-1-.34v1.37h1c0-.91.82-1.6,2.47-2v-.69h-.35Zm-.68,7v.35h1.44l-.42-.35V226Zm.68,4.86v.34H798c.1-.91,1-1.36,2.81-1.36v-1.37C798.71,229.45,797.66,230.25,797.66,231.16Zm0,17.79v.69h1.1V249Zm.34-83,.76.75h.68V166Zm1.1,55.84v.68c.91-.36,1.37-.71,1.37-1Zm2.39-27.58v3.15h.76l.34-1-.75-2.12Zm0,20.6v.68h2.13v-1Zm.76,16-.41,1.44h1.09l.34-1.44Zm.68-28.26-.68,1.78v.34l1.37-.34-.35-1.78Zm1.37,5.61v3.49h-.68V211l-.35-2.47.35-.34Zm0,0v3.49h-.68V211l-.35-2.47.35-.34Z"/><path class="cls-1" d="M815.8,161h.68l11.84,20.19c-.46,0-.68.34-.68,1-1.42,0-2.13.8-2.13,2.39l-3.07-.34v.34c0,.55-1.28,1.14-3.84,1.78l-.68.68h-.41l-1.37-1.71h-.34Zm7.32,24.71c1,.45,1.62.91,1.71,1.36l-.68,1.78c.45,0,.68-.36.68-1.09H827l1-.69h.34l.68.69-.68,1.09v.35H829c1.19-.5,1.78-1,1.78-1.44h1a4.18,4.18,0,0,1,2.05,3.49v.34c-2.55.23-4.06.57-4.51,1h-3.84q0,.75-1.71.75l-1,1L821,194h-1l-2.46,1.37h-1l-.68-.68v-3.15l.34-.34-.34-.34v-1.71h.34l.68.68-.34.34v.35l2.47.34c0-.46.79-.8,2.39-1l-.34-1.78h2.12v-.34l-.68-1.71h.34Zm9,9h1.37l.34-.34h.41c.23,2.1.92,3.14,2.06,3.14l.34-.34.68,2.06v2.46H836v.68h1.37l.69,49.41-.34.34H819l-1.44-.34-1.37.34-.34-.34v-52.9a2.88,2.88,0,0,1,2.8-2.12,3.53,3.53,0,0,0,2.4-.68h.68c2.1,1,3.15,1.66,3.15,2.12l1-.34c.95.23,1.43,1,1.43,2.39h.35l.68-.68v-.69c-.91-.86-1.37-1.57-1.37-2.12h-1.78l-1.71-.34v-.68l1-1H829v.68h1.44v-.68l-.41-.34V194l2.12-1Zm-16-40.72H837a142.07,142.07,0,0,1,10.13,17h-.75a34.12,34.12,0,0,1,6.29,8.69v.69l-.68,1.09c.91.09,1.37.44,1.37,1l-.35.34a3.15,3.15,0,0,1,3.15,3.49l-.68.68h-3.83v.69h-2.47v.68h-2.05l-4.18,1.1v-.34l-2.8.68-.68-.68h-1q0,1-.75,1h-.35l-2.73-4.86V185h.68c0,.69.68,1,2.05,1l1.44-.69.69.69,1.71-.34V185a3.79,3.79,0,0,1-3.15-1.78l-1.71-.34v-.68h-1v.68h-1.44c-.68,0-1-.68-1-2q-1.51,0-5.2-7.32Q817.17,156.77,816.14,154Zm3.15,47.7a4.33,4.33,0,0,1,1.37,2.74H821c.86-.92,1.57-1.37,2.12-1.37v-.69c-.68,0-1-.22-1-.68Zm0,11.08v.76l.68.68h.34l-.34-.34v-.34l.34-.41v-.35Zm3.83-6.91-.34.35v.34h1.37v-.34Zm5.88-3.49c0,1.05-1.16,1.62-3.49,1.71v1.78h.35a3.93,3.93,0,0,1,2.8-1.43c0-.92.34-1.37,1-1.37v-.69Zm-2,6.23h1.37l.68-.68v-.35C827.64,207.78,827,208.12,827,208.58ZM829.69,185h.75l1,1.37-1,.68h-.75l-1-1Zm0,20.19v.68h2.12v-.68Zm.34-46.67v.34l.75.69v-.35Zm1.44,37.91-.34,1.78v1h.34c.68-.23,1-.92,1-2.06ZM835,194h.68a2.31,2.31,0,0,1,1.37,2.4h-.34A2.43,2.43,0,0,1,835,194Zm0,10.41v.34l.68.75H836l-.34-1.09Zm22.58-15.26h.34q2.48,2.32,2.47,4.17c-.6,0-.94.46-1,1.37l1,.68h.34l-.34-.34v-1h1l34.08,57.42v.68h-6.91l-2.12-.68-.69.68h-10.4q-1.64-1.29-24-39.35-8.47-13.27-9.1-15.26H843v-.34h-.75l-.34.34c-1.6-2.5-2.39-4.15-2.39-4.92h2.73v.75H844l1.71.34.34-1.43,1.78.34h2.06L852,191.2l1,.68h.35c0-1.14,1-1.93,3.14-2.39l1,.34Zm-13.89-9.79v2.81q-1.44.14-1.44,1v.35h2.12c0,1.41.46,2.12,1.37,2.12v-1.1l1.78.41h.69l2.05-1.43-.34-.35v-.34c0-.59.48-.93,1.43-1v-.34h-3.83c-2.1-.64-3.15-1.34-3.15-2.12Zm.34-4.17-.34.34v1.09l.68.69.69-.69v-.41Zm4.86,7v1.37l-.68.68h-.35l-.68-.68Zm1.78,13.2v.69h1v-.69Zm3.08,2.47v.34l1.44.34h.34v-.34l-.69-.69Zm1.09,1v1l.69-.68v-.35Zm3.77,2.06v.41H860v-.41Zm1.78,0h1l1-1.71h-.34Q861.16,199.21,860.35,200.92Zm1.36,17.45v.68h.35l.68-.68Zm2.81-7.67h1V210h-.35Zm.68-5.54-.34,1v.34h.34l.69-.69v-.68ZM876,154l.34.35.34-.35h3.15l1.37.35,2.46-.35h11.43l.75.69v2.46h-1.78v.69c1.19,0,1.78.22,1.78.68v24.7q0,.69-1.44.69v.34q1.44,0,1.44.75v59.47h-.75L884.71,226h.68l-.68-.75-.35.41q-9.78-15.33-9.78-17.79l-.34-10.41v-9.78l.68-1-.68-.68v-3.15l2.8-.68v-1.78l.69-1a4.93,4.93,0,0,1-3.83-2.05V163.69l-.35-9.37.35-.35Zm-2.47,95,.69.69H876v-.34l-1.78-.35Zm.69-70.62a3.63,3.63,0,0,1,2.12,1.72v.75l-.69.68h-1.09l-.68-.68V179l.34-.34Zm2.46,12.87-.34.34v.34l1.71.35v-.69Zm3.15-26.41v.34l.34,1,1-1Zm1.71,25v.69h.34l.69-.69Zm1.37-31.34-.34.34v.34h1.09Zm0,4.86V164h1.78v-.68Zm1.78,11.15.68.69v-1.37Zm2.8,72.4-.41.34v.35h1.1Zm0-90.46v1.37l.69-.69v-.68Zm1,6.22V163h.68l1.37-1h-.68Zm1.71,52.22.68.68h.35v-.68Zm.68-43.87v.34h.76c0,.73.23,1.1.68,1.1h1V172l-2.12-1Zm1.1,9v.34l1.71.41h.34v-.41l-1.71-.34Z"/><path class="cls-1" d="M948.29,154l.34.35v15.26l-2,1.36v.35l1,.34c0-.69.2-1,.61-1h.34v.69l-8.62,3-5.68,4.31-2.67-.69c.46,1,.92,1.56,1.37,1.65,0-.64.21-1,.62-1v.61q-5.68,6.85-7.25,17.32l-.35-.35h-1q0,.69,1,.69l.35.34v.69c0,2.64-.35,4-1,4H925l.34.35v.68l-.69.62-.95-.35-.35.35v.34l.35.34h.34l1-.34q1.23,1.23,2.32,10.33l-1,1h-.35v.34h.62v-.34c1.14,0,1.71,1,1.71,3l-.34.34q.75.21,5.34,8.35,0,.75,7,5.27l5.61,1.37v1l-.35.34v.34l-.27-.34h-.68v1H944v-.35l.34-.34v-.34l-2-.34c-.68,2-1.92,3-3.7,3v.68c.69,0,1,.44,1,1.3v.34l1.3-.34-.27-.34v-.27c1.09,0,1.64-.23,1.64-.69v-.68l-.34-1h.34l1.3-.34h.68l2.33.61v-.27c.91.32,1.37.64,1.37,1l-.34.34v.34H948l-.34.34v1l.34.34v.35l-.34.34h-.35l-.68-.69c0,.46-.34.69-1,.69l-.27,1.64h.27l1.37-.34c0,.46.44.68,1.3.68v.69l-.61,1.64h-.35L946,244.1l-1.3,1v.69h.68v1.3l-.68.68-1.37.34v-1H944v-.69l-1-.27c1.33-1.64,2-2.88,2-3.7-.5,0-1.28.89-2.33,2.67l.34.34h-.34l-1-.68h-.35l-.61.68c0,.64.43,1,1.3,1l-.34,1,.34,1.64-.34-.34h-.35v.34c.69,0,1.14.78,1.37,2.33H942v.34l-6-1.3.28-1.71-2-.62-.68.62c0-.87-.32-1.3-1-1.3h-.34a1.15,1.15,0,0,1-1.3,1.3q-6-1.84-14.3-10.27l.27-1.36-.27-.35h-.35l-.68.69-5-7,.35-1h-.35q-1.23,0-4.31-9c0-2,.78-3,2.33-3l-.34-1.65c.45,0,.68.35.68,1l.34-.34h.28l.34.34v-1h1l.68.69-1,1,.35.34v.68l-.35-.34h-.34l-.34,2.33,1.71.34v-.34a3.75,3.75,0,0,1,3.29,2l-.35.34.35.35h.68l-.68-2h.34l1,.34v-.34l1,.69.34-.35h.69v.69l.68-.69v-.34l-.34-.34v-.34l.34-.34-.34-.35h-.34c0,.92-.34,1.37-1,1.37H917c-1-1.09-1.78-1.64-2.33-1.64l-.61.62h-1.37c-.46-.1-.89-.64-1.3-1.65a3.08,3.08,0,0,1,1.64-2.67l.34.35v-.35l1.3.69.35-.34v-.35l-.35-.34.69-1.3-.34-.34.34-.34h-.69l-.27.34h-.34l-1-.34v.34l-.68.68v-.34l-2,.69h-3v.61h-1.64q-1.31,0-1.3-5l1.64,1h1v-.68l-.34-1.64,1-1h-.34l-1.3,1-.68-1.37.34-.28-1.3-.68c.14,1.32.34,2,.62,2l-.28,1q-1,0-1-7.32,0-8,1-8l-.34-.34v-.34q.89-10.2,8.62-22.58Q927.56,154,948.29,154Zm-42.9,62.89h.34l1.37.34v.28l-1,1h-.34Zm2.67,4-.35.34v.34l3.36,2v-.69a2.48,2.48,0,0,0-1-2l-.34.34h-.28Zm.34-22v.69l1,.34v-.34Zm.68,8.69v.62h1.3l-.68-.62Zm.34-4.38v1l1-.34v-.69l-.34.35h-.34Zm6.3-3.62v.34l.34,1a5.92,5.92,0,0,1-3,1c0-.54-.43-.89-1.3-1l-.34.34v.34q2.67,0,2.67,3.36h-.34c-.46,0-.69.32-.69,1q-2.67,1.17-2.67,1.71h.34c2-.45,3-1.14,3-2.05l2-.27v.27l.34-.27h.69l-.35.27v.34l.35.35.27-.35h.34l.69.69-.35.34h1.65v-.34l-.28-1h.62v.69h1l-.35-.35v-.61h.35l1.3,1,1-.35-.34-.34v-.27l.34-1.71h-2v-.62h-.34v.62c-1.56-.32-2.33-.87-2.33-1.65v-.34l-.34.34h-.35a4,4,0,0,1-1.64-2.32Zm-5-14v.68h1v-.68Zm0,10.6v.69l.69.68.34-.34v-1Zm1.37,13.69v.34l1-1h-.34Zm1.3-2.33-.34,1.3q.69,0,.69-1v-.28Zm0,25.25v1h.35l1-.34-.61-.69Zm.35-35.24v.69h1v-.34Zm2,19.92-.34,1,.34,1h.34l.34-1,1,.35v-1Zm-.34,16v1l.34.34h.34v-.34l-.34-1ZM917,213.85l-1-.34h-.34v.34l2.33,1.3h.34l-.34-1.64.68-.69h-.34Zm.34,13,1.37.28.62-1h-1.3Zm4.31-11.36c0,.69-.2,1-.61,1l-1.37-.34v.34l-.34-.34h-.28l-1.37,2,.35,1.37h.34a2.22,2.22,0,0,1,1.64-2.05h1v.34h-.69l1,1.71H923l.34-.34h.35l1.3,1.3h.34q-2.05-3.28-3-3.29v-1.71Zm-4,20.67.69.61.34-.27v.27l1-.27-.34-1h-1Zm1-5.34.34,1.3h.62l.68-.62v-.68l-.34.34-.34-.34Zm.62-37.91v.62h1v-.62Zm.68-22v1c1-.5,1.51-1.05,1.64-1.64h-.27Zm1,67.54h.34l.62-.68v-.34Zm.34-25.93.27,1,1.37-1.3h-.68Zm1,24.22.68.69h.69l.34-1.3h-.34Zm.68,5.34v.34a2.38,2.38,0,0,0,2.33,1.65H927v-.35l-1.64-.27-1,.27.34-.27v-.68Zm.34-30.24.35.34v.34l1.64-.34v-.69H925Zm1,25.59v1H925v-1Zm1.71-45.23c0,.45-.34.68-1,.68v.62h.34l1.3-1.3Zm-.68,46.6.34.27-.34.34v.34l.68.69,1-.34v.68h.34c0-.45.46-.68,1.37-.68l.62-.69v-.61l-1,.61-2-.61Zm.34-6v1.37h.34l.35-1.37Zm2,12.32-.35,1h.35l1.3-.69v-.34h-.62l-.34-.34Zm0-22.65v.34h1v-.61Zm1.64,20-.62,1h.62l.34-1Zm-.34-14,.34.35v.34l-.34,1,.34.34H930C930,229.34,929.68,228.68,929,228.49Zm2.66,1.65L930,231.78l3-1v-.34Zm-.95-5.34v.68l.61.69.69-.69-1-.68Zm0,9v1.3a2.37,2.37,0,0,0,1.64,2.33H933v-1.3Zm4,10.61v.34l.34.34h1v-.34Zm2,1.71-.34.27v.34H937l-.34.35v.34H938v-1Zm1.71-1.71.62,1.71h1.37v-.69q-.69,0-.69-1Zm2.33-11.64.27.35v.34h-.61v.68l.95-.68.35.34v-.34l-.69-.69Zm5.61,16.29q2,0,2,1.71l.34,1h-.34l-2.67.34v-.34l-1-1.3-.35.34H944v-.68Zm2-3.28h.34v2.67l-.34.27v.34l-1-.34Q947.75,245.81,948.29,245.81Zm28-54.27-3.63-3.28.28-.35v-.34l-4-6.64a25.47,25.47,0,0,0-12.66-8.34c-2.65-.32-4-.76-4-1.3V154.66L953,154q15.27,0,29.57,11.64,9,9.38,10.33,15.67l-.68,1v.68l.68.68v-2c.32,0,.66.55,1,1.64Zm-1.37,14h.41v-.27l-.61-1h20.18v.69l-.34,1.64-1.3-.34-1,.34.34,1,1.3-.68v.68h1l.35-.34h.34v.34l-.34,1h1.64q0,13.28-11.29,28.61-14.72,15-32.92,15v-.68c.64,0,1-.21,1-.62h-1.3v-4.65H953V244.1h1l1,.68h.27l1.37-.68-2-2.67v-1.3c0-2.37.89-3.7,2.67-4l-.35-.34.35-.35v-1.3l-1.72.28v-1l3-.69v.35l-.35.34v.34H959q0-1.37,5.34-4c2.64-2.19,4-3.62,4-4.31h2.33v-.34l-.34-.34v-.28l-.34.28h-.62v-.28c0-.36,1-1.13,2.94-2.32v-1l-.2-1-.21,1.64-2.46-.34-.68.75H968v-.41l-2.46.41h-4.25l-.34-.41-.34.41h-2.46l-.35-.41-.34.41h-2.05l-1.44-.41-1.37.41h-.06V210.36H954v-.75l-.34.41h-.34l-.75-.28v-5.47l1.77.48.76-.69h.34l.34.35.34-.35h14l.69.69v.34h-.34l-1.71-.34-.35.34v.34l2.81.76.34-1.1h3.42Zm-22,31h.68l-.34,1.64H953l-.62-.68v-.34Zm-.62,4H953v2.67l-.62.61Zm2-25.25v1.37l1.1.34.68-2.05Zm2.13-9a4,4,0,0,1,2.46,1.36.9.9,0,0,1,1-1c0,.36.79.93,2.39,1.71v-.69c-1.09,0-2.12-.7-3.08-2.12h-2.12Zm.89,40.92-.35.34v.68l1,.35v-.69Zm0-7.67v.34l.95.35v-.69Zm1.16-23.2v.69l1.09,2.46h.35v-2.12c-.46,0-.69-.34-.69-1Zm.75,3.49c0,.69-.25,1-.75,1v.69l1.44-.69v-1Zm0-8.69.34,1.37h.69l.68-.68-.68-.69Zm.34,2.06v1.43h.35V213.1Zm14.72-1.71v-.07q-4.72-.34-6-1.71h-2.12v-.69H964.1c0-.91-.48-1.37-1.44-1.37v.35c.55,2.1,1.14,3.14,1.78,3.14s1.1.35,1.1,1l.34.34h.34c0-.91.37-1.37,1.1-1.37l1-.68,2.06,1.37h.75l.34-.34Zm-9.38,32.09v.27h.69l.34-.95h-.34Zm1.3-29.7.34,1.78,1.1-1-.75-.75Zm5.41,14,.34,1h.27l.69-.69v-.68l-.69-.62C971.83,226.85,971.63,227.17,971.63,227.81Zm.55-8.55.06-.07h.69l.34.34.34-.34H974a.85.85,0,0,1,1,1h.34v-1.3h-1.64c-.45,0-.68-.35-.68-1l2.73-2-.82.34-.27-.28c.14-1.09.48-1.64,1-1.64v-.68a3.57,3.57,0,0,1-.76-.07l.07.34-2.73,4.59-.35.34.35.34Zm1.43,5.88.34,1h.35l.61-.69v-.68l-.61-.62Q973.61,224.18,973.61,225.14Zm1.23-9-.27.07h.34Zm.07-5.61h.69c0-.41.34-.62,1-.62l.28-1.71h-.62v.68l-.68.69h-.69Zm.69,16v.34l.34.28h1v-.28Zm.34-13v.34l.34,1h1l-.62-1.37Zm0,7.32.68.68h.28l-.62-.68Zm.34-55.91v.34c.46,0,.69.35.69,1h.61v-1.37Zm1.3,40c0,.63-.23,1-.68,1l-.28-.34h-.34v.34c0,.55,1.21,1,3.63,1.37,0,.64.23,1,.68,1l.34-.34v-.28c-.68,0-1-.45-1-1.36l-.34.34h-.35c-.59,0-.91-.55-1-1.64Zm.34,11.29-.34,1.3h1l1.3-.62-.34-.34v-.34l-.35.34h-.61l-.34-.34Zm2,8.62.34.34-.34.34h1l-.34-1.3Zm2.32-16.29-.34-.34h-.34l-.27.34v.69l.27-.35h1l1,.69v-1.71h-.34Zm-.68,1v.34l.34,1-.34.34h1v-.34l-.69-1.3Zm3.35,1,.35,1h1v-.68Zm4.66-26.9q0,1-1.65,1v.34h1.37l2-.68v-.62h-.69l-.34.28h-.34Zm-1.3,24.23v.34h1.64l-.69-.62Zm6,2.67-.34,1h1v-1Zm2.81-6.3-.14.69c-.32,0-.53-.23-.62-.69Z"/></g></g></svg>